<mxfile host="app.diagrams.net" modified="2023-10-20T12:10:58.208Z" agent="Mozilla/5.0 (Windows NT 10.0; Win64; x64) AppleWebKit/537.36 (KHTML, like Gecko) Chrome/118.0.0.0 Safari/537.36" etag="yPgRTRL68SCeBm83JkLJ" version="22.0.0" type="device">
  <diagram name="Page-1" id="n_h4y966IQSPfqlrdHk4">
    <mxGraphModel dx="1050" dy="557" grid="1" gridSize="10" guides="1" tooltips="1" connect="1" arrows="1" fold="1" page="1" pageScale="1" pageWidth="850" pageHeight="1100" math="0" shadow="0">
      <root>
        <mxCell id="0" />
        <mxCell id="1" parent="0" />
        <mxCell id="7uIyVyYUi98pweWcv_3k-1" value="" style="rounded=0;whiteSpace=wrap;html=1;fillColor=#dae8fc;strokeColor=#6c8ebf;" vertex="1" parent="1">
          <mxGeometry x="70" y="140" width="710" height="180" as="geometry" />
        </mxCell>
        <UserObject label="" id="7uIyVyYUi98pweWcv_3k-2">
          <mxCell style="rounded=0;whiteSpace=wrap;html=1;fillColor=#ffe6cc;strokeColor=#d79b00;" vertex="1" parent="1">
            <mxGeometry x="70" y="320" width="710" height="370" as="geometry" />
          </mxCell>
        </UserObject>
        <mxCell id="7uIyVyYUi98pweWcv_3k-3" value="" style="shape=image;verticalLabelPosition=bottom;labelBackgroundColor=#ffffff;verticalAlign=top;aspect=fixed;imageAspect=0;image=data:image/svg+xml,PHN2ZyB4bWxuczpjYz0iaHR0cDovL2NyZWF0aXZlY29tbW9ucy5vcmcvbnMjIiB4bWxuczpkYz0iaHR0cDovL3B1cmwub3JnL2RjL2VsZW1lbnRzLzEuMS8iIHhtbG5zOmlua3NjYXBlPSJodHRwOi8vd3d3Lmlua3NjYXBlLm9yZy9uYW1lc3BhY2VzL2lua3NjYXBlIiB4bWxuczpyZGY9Imh0dHA6Ly93d3cudzMub3JnLzE5OTkvMDIvMjItcmRmLXN5bnRheC1ucyMiIHhtbG5zOnNvZGlwb2RpPSJodHRwOi8vc29kaXBvZGkuc291cmNlZm9yZ2UubmV0L0RURC9zb2RpcG9kaS0wLmR0ZCIgeG1sbnM6c3ZnPSJodHRwOi8vd3d3LnczLm9yZy8yMDAwL3N2ZyIgeG1sbnM9Imh0dHA6Ly93d3cudzMub3JnLzIwMDAvc3ZnIiB4bWxuczp4bGluaz0iaHR0cDovL3d3dy53My5vcmcvMTk5OS94bGluayIgdmVyc2lvbj0iMS4xIiBpZD0ic3ZnMjQ2NTUiIGlua3NjYXBlOnZlcnNpb249IjAuOTIuMyAoMjQwNTU0NiwgMjAxOC0wMy0xMSkiIHNvZGlwb2RpOmRvY25hbWU9IndvcmtzcGFjZV8xLnN2ZyIgeD0iMHB4IiB5PSIwcHgiIHZpZXdCb3g9IjAgMCA3Ni40NSA2MC41OCIgc3R5bGU9ImVuYWJsZS1iYWNrZ3JvdW5kOm5ldyAwIDAgNzYuNDUgNjAuNTg7IiB4bWw6c3BhY2U9InByZXNlcnZlIj4mI3hhOzxzb2RpcG9kaTpuYW1lZHZpZXcgYm9yZGVyY29sb3I9IiM2NjY2NjYiIGJvcmRlcm9wYWNpdHk9IjEiIGZpdC1tYXJnaW4tYm90dG9tPSIwIiBmaXQtbWFyZ2luLWxlZnQ9IjAiIGZpdC1tYXJnaW4tcmlnaHQ9IjAiIGZpdC1tYXJnaW4tdG9wPSIwIiBncmlkdG9sZXJhbmNlPSIxMCIgZ3VpZGV0b2xlcmFuY2U9IjEwIiBpZD0ibmFtZWR2aWV3MjQ2NTciIGlua3NjYXBlOmN1cnJlbnQtbGF5ZXI9InN2ZzI0NjU1IiBpbmtzY2FwZTpjeD0iNTAuOTYzMzYxIiBpbmtzY2FwZTpjeT0iNDAuMzg2MzQ4IiBpbmtzY2FwZTpwYWdlb3BhY2l0eT0iMCIgaW5rc2NhcGU6cGFnZXNoYWRvdz0iMiIgaW5rc2NhcGU6d2luZG93LWhlaWdodD0iMTAxNyIgaW5rc2NhcGU6d2luZG93LW1heGltaXplZD0iMSIgaW5rc2NhcGU6d2luZG93LXdpZHRoPSIxOTIwIiBpbmtzY2FwZTp3aW5kb3cteD0iLTgiIGlua3NjYXBlOndpbmRvdy15PSItOCIgaW5rc2NhcGU6em9vbT0iMTAuNDc0MzQyIiBvYmplY3R0b2xlcmFuY2U9IjEwIiBwYWdlY29sb3I9IiNmZmZmZmYiIHNob3dncmlkPSJmYWxzZSI+JiN4YTsJPC9zb2RpcG9kaTpuYW1lZHZpZXc+JiN4YTs8ZyBpZD0iZzI0NjUzIiB0cmFuc2Zvcm09InRyYW5zbGF0ZSgtMC43NSwtMC43NTMzNjAwNSkiPiYjeGE7CTx0aXRsZSBpZD0idGl0bGUyNDQ5MCI+UGFnZS0xPC90aXRsZT4mI3hhOwk8ZyBpZD0iZ3JvdXA5MTU1LTEiIHRyYW5zZm9ybT0idHJhbnNsYXRlKDEuNSwtMC43NDk5ODYpIj4mI3hhOwkJPHRpdGxlIGlkPSJ0aXRsZTI0NDkyIj5Xb3Jrc3BhY2UgIzE8L3RpdGxlPiYjeGE7CQk8ZyBpZD0iZ3JvdXA5MTU2LTIiIHRyYW5zZm9ybT0idHJhbnNsYXRlKDAsLTEuNDM0N2UtNSkiPiYjeGE7CQkJPHRpdGxlIGlkPSJ0aXRsZTI0NDk0Ij5TaGVldC45MTU2PC90aXRsZT4mI3hhOwkJCTxnIGlkPSJzaGFwZTkxNTctMyIgdHJhbnNmb3JtPSJ0cmFuc2xhdGUoMzUuNTQ1NSwtMS40MTcwMykiPiYjeGE7CQkJCTx0aXRsZSBpZD0idGl0bGUyNDQ5NiI+cG9seWdvbjEwMzY8L3RpdGxlPiYjeGE7CQkJCTxwYXRoIGlkPSJwYXRoMjQ0OTgiIGlua3NjYXBlOmNvbm5lY3Rvci1jdXJ2YXR1cmU9IjAiIHN0eWxlPSJmaWxsOiM1NTZBOEE7IiBkPSJNMC42LDUzLjYzaDIuNDJsMC42LDguNDVIMEwwLjYsNTMuNjN6Ii8+JiN4YTsJCQk8L2c+JiN4YTsJCQk8ZyBpZD0ic2hhcGU5MTU4LTUiIHRyYW5zZm9ybT0idHJhbnNsYXRlKDAsLTEwLjA3NjcpIj4mI3hhOwkJCQk8dGl0bGUgaWQ9InRpdGxlMjQ1MDEiPnBhdGgxMDM4PC90aXRsZT4mI3hhOwkJCQk8cGF0aCBpZD0icGF0aDI0NTAzIiBpbmtzY2FwZTpjb25uZWN0b3ItY3VydmF0dXJlPSIwIiBzdHlsZT0iZmlsbDojRkZGRkZGOyIgZD0iTTcwLjI2LDEyLjMzSDQuNjkgICAgICBDMi4xMiwxMi4zMiwwLjAyLDE0LjM5LDAsMTYuOTZ2NDAuNDljMC4wMiwyLjU3LDIuMTIsNC42NCw0LjY5LDQuNjNoNjUuNTdjMi41NywwLjAxLDQuNjctMi4wNiw0LjY5LTQuNjNWMTYuOTYgICAgICBDNzQuOTMsMTQuMzksNzIuODMsMTIuMzIsNzAuMjYsMTIuMzN6Ii8+JiN4YTsJCQk8L2c+JiN4YTsJCQk8ZyBpZD0ic2hhcGU5MTU5LTciIHRyYW5zZm9ybT0idHJhbnNsYXRlKDAsLTQ3Ljg2NDIpIj4mI3hhOwkJCQk8dGl0bGUgaWQ9InRpdGxlMjQ1MDYiPnBhdGgxMDQwPC90aXRsZT4mI3hhOwkJCQk8cGF0aCBpZD0icGF0aDI0NTA4IiBpbmtzY2FwZTpjb25uZWN0b3ItY3VydmF0dXJlPSIwIiBzdHlsZT0iZmlsbDojRTVFNUU1OyIgZD0iTTc0Ljk1LDU0Ljc0djcuMzRIMHYtNy4zNCAgICAgIGMwLjAyLTIuNTcsMi4xMi00LjY0LDQuNjktNC42M2g2NS41N0M3Mi44Myw1MC4xLDc0LjkzLDUyLjE3LDc0Ljk1LDU0Ljc0eiIvPiYjeGE7CQkJPC9nPiYjeGE7CQkJPGcgaWQ9InNoYXBlOTE2MC05IiB0cmFuc2Zvcm09InRyYW5zbGF0ZSgwLC0xMC4wNzY3KSI+JiN4YTsJCQkJPHRpdGxlIGlkPSJ0aXRsZTI0NTExIj5wYXRoMTA0MjwvdGl0bGU+JiN4YTsJCQkJJiN4YTsJCQkJCTxwYXRoIGlkPSJwYXRoMjQ1MTMiIGlua3NjYXBlOmNvbm5lY3Rvci1jdXJ2YXR1cmU9IjAiIHN0eWxlPSJmaWxsOm5vbmU7c3Ryb2tlOiM1NTZBOEE7c3Ryb2tlLXdpZHRoOjEuNTtzdHJva2UtbWl0ZXJsaW1pdDozOyIgZD0iICAgICAgTTcwLjI2LDEyLjMzSDQuNjlDMi4xMiwxMi4zMiwwLjAyLDE0LjM5LDAsMTYuOTZ2NDAuNDljMC4wMiwyLjU3LDIuMTIsNC42NCw0LjY5LDQuNjNoNjUuNTdjMi41NywwLjAxLDQuNjctMi4wNiw0LjY5LTQuNjMgICAgICBWMTYuOTZDNzQuOTMsMTQuMzksNzIuODMsMTIuMzIsNzAuMjYsMTIuMzN6Ii8+JiN4YTsJCQk8L2c+JiN4YTsJCQk8ZyBpZD0ic2hhcGU5MTYxLTExIiB0cmFuc2Zvcm09InRyYW5zbGF0ZSgxOC4wNDM1KSI+JiN4YTsJCQkJPHRpdGxlIGlkPSJ0aXRsZTI0NTE2Ij5wb2x5Z29uMTA0NDwvdGl0bGU+JiN4YTsJCQkJPHBhdGggaWQ9InBhdGgyNDUxOCIgaW5rc2NhcGU6Y29ubmVjdG9yLWN1cnZhdHVyZT0iMCIgc3R5bGU9ImZpbGw6IzU1NkE4QTsiIGQ9Ik0wLDYyLjA4aDM4LjQybC0zLjYxLTIuNTJIMy42TDAsNjIuMDh6Ii8+JiN4YTsJCQk8L2c+JiN4YTsJCTwvZz4mI3hhOwkJPGcgaWQ9InNoYXBlOTE2Mi0xMyIgdHJhbnNmb3JtPSJ0cmFuc2xhdGUoMTMuOTQ3MSwtMzUuNzU0OCkiPiYjeGE7CQkJPHRpdGxlIGlkPSJ0aXRsZTI0NTIyIj5TaGVldC45MTYyPC90aXRsZT4mI3hhOwkJCTxwYXRoIGlkPSJwYXRoMjQ1MjQiIGlua3NjYXBlOmNvbm5lY3Rvci1jdXJ2YXR1cmU9IjAiIHN0eWxlPSJmaWxsOiMwMDQ0Q0M7IiBkPSJNMCw1NC42OXY3LjM5aDE1LjAydi03LjM5SDB6Ii8+JiN4YTsJCTwvZz4mI3hhOwkJPGcgaWQ9InNoYXBlOTE2My0xNSIgdHJhbnNmb3JtPSJ0cmFuc2xhdGUoMjkuNzM1NiwtMzUuNzU0OCkiPiYjeGE7CQkJPHRpdGxlIGlkPSJ0aXRsZTI0NTI3Ij5TaGVldC45MTYzPC90aXRsZT4mI3hhOwkJCTxwYXRoIGlkPSJwYXRoMjQ1MjkiIGlua3NjYXBlOmNvbm5lY3Rvci1jdXJ2YXR1cmU9IjAiIHN0eWxlPSJmaWxsOiM1RDQ5OUQ7IiBkPSJNMCw1NC42OXY3LjM5aDE1LjAydi03LjM5SDB6Ii8+JiN4YTsJCTwvZz4mI3hhOwkJPGcgaWQ9InNoYXBlOTE2NC0xNyIgdHJhbnNmb3JtPSJ0cmFuc2xhdGUoNDUuMjY5NCwtMzUuNzU0OCkiPiYjeGE7CQkJPHRpdGxlIGlkPSJ0aXRsZTI0NTMyIj5TaGVldC45MTY0PC90aXRsZT4mI3hhOwkJCTxwYXRoIGlkPSJwYXRoMjQ1MzQiIGlua3NjYXBlOmNvbm5lY3Rvci1jdXJ2YXR1cmU9IjAiIHN0eWxlPSJmaWxsOiNGOUY3Rjg7IiBkPSJNMCw1NC42OXY3LjM5aDcuMzh2LTcuMzlIMHoiLz4mI3hhOwkJPC9nPiYjeGE7CQk8ZyBpZD0ic2hhcGU5MTY1LTE5IiB0cmFuc2Zvcm09InRyYW5zbGF0ZSg1My4xNjM3LC0zNS43NTQ4KSI+JiN4YTsJCQk8dGl0bGUgaWQ9InRpdGxlMjQ1MzciPlNoZWV0LjkxNjU8L3RpdGxlPiYjeGE7CQkJPHBhdGggaWQ9InBhdGgyNDUzOSIgaW5rc2NhcGU6Y29ubmVjdG9yLWN1cnZhdHVyZT0iMCIgc3R5bGU9ImZpbGw6IzAxOUU0QTsiIGQ9Ik0wLDU0LjY5djcuMzloNy4zOHYtNy4zOUgweiIvPiYjeGE7CQk8L2c+JiN4YTsJCTxnIGlkPSJzaGFwZTkxNjYtMjEiIHRyYW5zZm9ybT0idHJhbnNsYXRlKDQ1LjI2OTQsLTI3Ljg1MzcpIj4mI3hhOwkJCTx0aXRsZSBpZD0idGl0bGUyNDU0MiI+U2hlZXQuOTE2NjwvdGl0bGU+JiN4YTsJCQk8cGF0aCBpZD0icGF0aDI0NTQ0IiBpbmtzY2FwZTpjb25uZWN0b3ItY3VydmF0dXJlPSIwIiBzdHlsZT0iZmlsbDojMDA0NENDOyIgZD0iTTAsNTQuNjl2Ny4zOWg3LjM4di03LjM5SDB6Ii8+JiN4YTsJCTwvZz4mI3hhOwkJPGcgaWQ9InNoYXBlOTE2Ny0yMyIgdHJhbnNmb3JtPSJ0cmFuc2xhdGUoMTMuOTQ3MSwtMjcuODUzNykiPiYjeGE7CQkJPHRpdGxlIGlkPSJ0aXRsZTI0NTQ3Ij5TaGVldC45MTY3PC90aXRsZT4mI3hhOwkJCTxwYXRoIGlkPSJwYXRoMjQ1NDkiIGlua3NjYXBlOmNvbm5lY3Rvci1jdXJ2YXR1cmU9IjAiIHN0eWxlPSJmaWxsOiMwMTlFNEE7IiBkPSJNMCw1NC42OXY3LjM5aDcuMzh2LTcuMzlIMHoiLz4mI3hhOwkJPC9nPiYjeGE7CQk8ZyBpZD0ic2hhcGU5MTY4LTI1IiB0cmFuc2Zvcm09InRyYW5zbGF0ZSgxMy45NDcxLC0xOS45NTI3KSI+JiN4YTsJCQk8dGl0bGUgaWQ9InRpdGxlMjQ1NTIiPlNoZWV0LjkxNjg8L3RpdGxlPiYjeGE7CQkJPHBhdGggaWQ9InBhdGgyNDU1NCIgaW5rc2NhcGU6Y29ubmVjdG9yLWN1cnZhdHVyZT0iMCIgc3R5bGU9ImZpbGw6IzAwNDRDQzsiIGQ9Ik0wLDU0LjY5djcuMzloNy4zOHYtNy4zOUgweiIvPiYjeGE7CQk8L2c+JiN4YTsJCTxnIGlkPSJzaGFwZTkxNjktMjciIHRyYW5zZm9ybT0idHJhbnNsYXRlKDIxLjg0MTQsLTE5Ljk1MjcpIj4mI3hhOwkJCTx0aXRsZSBpZD0idGl0bGUyNDU1NyI+U2hlZXQuOTE2OTwvdGl0bGU+JiN4YTsJCQk8cGF0aCBpZD0icGF0aDI0NTU5IiBpbmtzY2FwZTpjb25uZWN0b3ItY3VydmF0dXJlPSIwIiBzdHlsZT0iZmlsbDojRkY4QzAwOyIgZD0iTTAsNTQuNjl2Ny4zOWg3LjM4di03LjM5SDB6Ii8+JiN4YTsJCTwvZz4mI3hhOwkJPGcgaWQ9InNoYXBlOTE3MC0yOSIgdHJhbnNmb3JtPSJ0cmFuc2xhdGUoMjkuNzM1NiwtMjcuODUzNykiPiYjeGE7CQkJPHRpdGxlIGlkPSJ0aXRsZTI0NTYyIj5TaGVldC45MTcwPC90aXRsZT4mI3hhOwkJCTxwYXRoIGlkPSJwYXRoMjQ1NjQiIGlua3NjYXBlOmNvbm5lY3Rvci1jdXJ2YXR1cmU9IjAiIHN0eWxlPSJmaWxsOiM1ODU5NUI7IiBkPSJNMCw1NC42OXY3LjM5aDE1LjAydi03LjM5SDB6Ii8+JiN4YTsJCTwvZz4mI3hhOwkJPGcgaWQ9InNoYXBlOTE3MS0zMSIgdHJhbnNmb3JtPSJ0cmFuc2xhdGUoMjkuNzM1NiwtMTkuOTUyNykiPiYjeGE7CQkJPHRpdGxlIGlkPSJ0aXRsZTI0NTY3Ij5TaGVldC45MTcxPC90aXRsZT4mI3hhOwkJCTxwYXRoIGlkPSJwYXRoMjQ1NjkiIGlua3NjYXBlOmNvbm5lY3Rvci1jdXJ2YXR1cmU9IjAiIHN0eWxlPSJmaWxsOiNGOUY3Rjg7IiBkPSJNMCw1NC42OXY3LjM5aDE1LjAydi03LjM5SDB6Ii8+JiN4YTsJCTwvZz4mI3hhOwkJPGcgaWQ9InNoYXBlOTE3Mi0zMyIgdHJhbnNmb3JtPSJ0cmFuc2xhdGUoNDUuMjY5NCwtMTkuOTUyNykiPiYjeGE7CQkJPHRpdGxlIGlkPSJ0aXRsZTI0NTcyIj5TaGVldC45MTcyPC90aXRsZT4mI3hhOwkJCTxwYXRoIGlkPSJwYXRoMjQ1NzQiIGlua3NjYXBlOmNvbm5lY3Rvci1jdXJ2YXR1cmU9IjAiIHN0eWxlPSJmaWxsOiNGOUY3Rjg7IiBkPSJNMCw1OS43OXYyLjI5aDE1LjI4di0yLjI5SDB6Ii8+JiN4YTsJCTwvZz4mI3hhOwkJPGcgaWQ9InNoYXBlOTE3My0zNSIgdHJhbnNmb3JtPSJ0cmFuc2xhdGUoNDUuMjY5NCwtMjIuNTAxNCkiPiYjeGE7CQkJPHRpdGxlIGlkPSJ0aXRsZTI0NTc3Ij5TaGVldC45MTczPC90aXRsZT4mI3hhOwkJCTxwYXRoIGlkPSJwYXRoMjQ1NzkiIGlua3NjYXBlOmNvbm5lY3Rvci1jdXJ2YXR1cmU9IjAiIHN0eWxlPSJmaWxsOiM1ODU5NUI7IiBkPSJNMCw1Ny4yNHY0Ljg0aDE1LjI4di00Ljg0SDB6Ii8+JiN4YTsJCTwvZz4mI3hhOwkJPGcgaWQ9InNoYXBlOTE3NC0zNyIgdHJhbnNmb3JtPSJ0cmFuc2xhdGUoNTMuMTYzNywtMjcuODUzNykiPiYjeGE7CQkJPHRpdGxlIGlkPSJ0aXRsZTI0NTgyIj5TaGVldC45MTc0PC90aXRsZT4mI3hhOwkJCTxwYXRoIGlkPSJwYXRoMjQ1ODQiIGlua3NjYXBlOmNvbm5lY3Rvci1jdXJ2YXR1cmU9IjAiIHN0eWxlPSJmaWxsOiNGOUY3Rjg7IiBkPSJNMCw1NC42OXY3LjM5aDcuMzh2LTcuMzlIMHoiLz4mI3hhOwkJPC9nPiYjeGE7CQk8ZyBpZD0ic2hhcGU5MTc1LTM5IiB0cmFuc2Zvcm09InRyYW5zbGF0ZSg2NC4xMTM4LC0yNy44NTM3KSI+JiN4YTsJCQk8dGl0bGUgaWQ9InRpdGxlMjQ1ODciPlNoZWV0LjkxNzU8L3RpdGxlPiYjeGE7CQkJPHBhdGggaWQ9InBhdGgyNDU4OSIgaW5rc2NhcGU6Y29ubmVjdG9yLWN1cnZhdHVyZT0iMCIgc3R5bGU9ImZpbGw6IzAxOUU0QTsiIGQ9Ik0wLDU0LjY5djcuMzloNy4xM3YtNy4zOUgweiIvPiYjeGE7CQk8L2c+JiN4YTsJCTxnIGlkPSJzaGFwZTkxNzYtNDEiIHRyYW5zZm9ybT0idHJhbnNsYXRlKDY0LjExMzgsLTE5Ljk1MjcpIj4mI3hhOwkJCTx0aXRsZSBpZD0idGl0bGUyNDU5MiI+U2hlZXQuOTE3NjwvdGl0bGU+JiN4YTsJCQk8cGF0aCBpZD0icGF0aDI0NTk0IiBpbmtzY2FwZTpjb25uZWN0b3ItY3VydmF0dXJlPSIwIiBzdHlsZT0iZmlsbDojRkY4QzAwOyIgZD0iTTAsNTQuNjl2Ny4zOWg3LjEzdi03LjM5SDB6Ii8+JiN4YTsJCTwvZz4mI3hhOwkJPGcgaWQ9InNoYXBlOTE3Ny00MyIgdHJhbnNmb3JtPSJ0cmFuc2xhdGUoNzEuNzUzNCwtMjcuODUzNykiPiYjeGE7CQkJPHRpdGxlIGlkPSJ0aXRsZTI0NTk3Ij5TaGVldC45MTc3PC90aXRsZT4mI3hhOwkJCTxwYXRoIGlkPSJwYXRoMjQ1OTkiIGlua3NjYXBlOmNvbm5lY3Rvci1jdXJ2YXR1cmU9IjAiIHN0eWxlPSJmaWxsOiNGRjhDMDA7IiBkPSJNMCw1NC42OXY3LjM5aDIuNTV2LTcuMzlIMHoiLz4mI3hhOwkJPC9nPiYjeGE7CQk8ZyBpZD0ic2hhcGU5MTc4LTQ1IiB0cmFuc2Zvcm09InRyYW5zbGF0ZSg3MS43NTM0LC0xOS45NTI3KSI+JiN4YTsJCQk8dGl0bGUgaWQ9InRpdGxlMjQ2MDIiPlNoZWV0LjkxNzg8L3RpdGxlPiYjeGE7CQkJPHBhdGggaWQ9InBhdGgyNDYwNCIgaW5rc2NhcGU6Y29ubmVjdG9yLWN1cnZhdHVyZT0iMCIgc3R5bGU9ImZpbGw6IzlFMUY2MzsiIGQ9Ik0wLDU0LjY5djcuMzloMi41NXYtNy4zOUgweiIvPiYjeGE7CQk8L2c+JiN4YTsJCTxnIGlkPSJzaGFwZTkxNzktNDciIHRyYW5zZm9ybT0idHJhbnNsYXRlKDY0LjExMzgsLTM1Ljc1NDgpIj4mI3hhOwkJCTx0aXRsZSBpZD0idGl0bGUyNDYwNyI+U2hlZXQuOTE3OTwvdGl0bGU+JiN4YTsJCQk8cGF0aCBpZD0icGF0aDI0NjA5IiBpbmtzY2FwZTpjb25uZWN0b3ItY3VydmF0dXJlPSIwIiBzdHlsZT0iZmlsbDojMDA0NENDOyIgZD0iTTAsNTQuNjl2Ny4zOWgxMC4xOXYtNy4zOUgweiIvPiYjeGE7CQk8L2c+JiN4YTsJCTxnIGlkPSJzaGFwZTkxODAtNDkiIHRyYW5zZm9ybT0idHJhbnNsYXRlKDIxLjg0MTQsLTI3Ljg1MzcpIj4mI3hhOwkJCTx0aXRsZSBpZD0idGl0bGUyNDYxMiI+U2hlZXQuOTE4MDwvdGl0bGU+JiN4YTsJCQk8cGF0aCBpZD0icGF0aDI0NjE0IiBpbmtzY2FwZTpjb25uZWN0b3ItY3VydmF0dXJlPSIwIiBzdHlsZT0iZmlsbDojRjlGN0Y4OyIgZD0iTTMuNzIsNTQuNjlIMHYzLjY2djMuNzNoMy43MmgzLjY2di0zLjczdi0zLjY2ICAgICBIMy43MnoiLz4mI3hhOwkJPC9nPiYjeGE7CQk8ZyBpZD0ic2hhcGU5MTgxLTUxIiB0cmFuc2Zvcm09InRyYW5zbGF0ZSg1LjU0ODM3LC01Mi4xOTU1KSI+JiN4YTsJCQk8dGl0bGUgaWQ9InRpdGxlMjQ2MTciPlNoZWV0LjkxODE8L3RpdGxlPiYjeGE7CQkJPHBhdGggaWQ9InBhdGgyNDYxOSIgaW5rc2NhcGU6Y29ubmVjdG9yLWN1cnZhdHVyZT0iMCIgc3R5bGU9ImZpbGw6IzNGNTc2NTsiIGQ9Ik0wLDYxLjkxYzAtMC4xOCwwLTAuMTgsMC0wLjE4ICAgICBjMC4xNSwwLjE4LDAuMywwLjE4LDAuNDUsMC4xOHMwLjMsMCwwLjQ1LTAuMThjMC4xNSwwLDAuMTUtMC4xNywwLjE1LTAuMzVjMC0wLjE3LDAtMC4xNy0wLjE1LTAuMzVjMCwwLTAuMTUtMC4xNy0wLjMtMC4zNSAgICAgYy0wLjMsMC0wLjQ1LTAuMTctMC40NS0wLjM1QzAsNjAuMTYsMCw2MC4xNiwwLDU5Ljk4YzAtMC4xNywwLTAuMzUsMC4xNS0wLjUyYzAuMTUtMC4xOCwwLjMtMC4xOCwwLjYtMC4xOGMwLjE1LDAsMC4xNSwwLDAuMywwICAgICBjMCwwLjM1LDAsMC4zNSwwLDAuMzVjLTAuMTUtMC4xNy0wLjMtMC4xNy0wLjQ1LTAuMTdzLTAuMTUsMC0wLjMsMC4xN2MtMC4xNSwwLTAuMTUsMC4xOC0wLjE1LDAuMzVjMCwwLjE4LDAsMC4xOCwwLjE1LDAuMzUgICAgIGMwLDAsMC4xNSwwLjE4LDAuMywwLjM1YzAuMywwLjE4LDAuNDUsMC4xOCwwLjQ1LDAuMzVjMC4xNSwwLjE4LDAuMTUsMC4xOCwwLjE1LDAuMzVjMCwwLjE4LDAsMC4zNS0wLjE1LDAuNTMgICAgIGMtMC4xNSwwLjE3LTAuMywwLjE3LTAuNiwwLjE3YzAsMC0wLjE1LDAtMC4zLDBDMC4xNSw2Mi4wOCwwLDYyLjA4LDAsNjEuOTFMMCw2MS45MXoiLz4mI3hhOwkJPC9nPiYjeGE7CQk8ZyBpZD0ic2hhcGU5MTgyLTUzIiB0cmFuc2Zvcm09InRyYW5zbGF0ZSg3LjE0NDU5LC01Mi4xOTU1KSI+JiN4YTsJCQk8dGl0bGUgaWQ9InRpdGxlMjQ2MjIiPlNoZWV0LjkxODI8L3RpdGxlPiYjeGE7CQkJPHBhdGggaWQ9InBhdGgyNDYyNCIgaW5rc2NhcGU6Y29ubmVjdG9yLWN1cnZhdHVyZT0iMCIgc3R5bGU9ImZpbGw6IzNGNTc2NTsiIGQ9Ik0xLjIsNjIuMDhjLTAuMiwwLTAuMiwwLTAuNCwwICAgICBjLTAuNCwwLTAuNC0wLjE3LTAuNC0wLjU1YzAtMS4zLDAtMS4zLDAtMS4zYy0wLjQsMC0wLjQsMC0wLjQsMGMwLTAuMiwwLTAuMiwwLTAuMmMwLjQsMCwwLjQsMCwwLjQsMGMwLTAuNTUsMC0wLjU1LDAtMC41NWwwLDAgICAgIGMwLDAsMCwwLDAuMi0wLjJjMCwwLjc1LDAsMC43NSwwLDAuNzVjMC42LDAsMC42LDAsMC42LDBjMCwwLjIsMCwwLjIsMCwwLjJjLTAuNiwwLTAuNiwwLTAuNiwwYzAsMS4zLDAsMS4zLDAsMS4zICAgICBjMCwwLjIsMCwwLjIsMCwwLjM4aDAuMmMwLjIsMCwwLjIsMCwwLjQsMFY2Mi4wOHoiLz4mI3hhOwkJPC9nPiYjeGE7CQk8ZyBpZD0ic2hhcGU5MTgzLTU1IiB0cmFuc2Zvcm09InRyYW5zbGF0ZSg4Ljc0MDgsLTUyLjE5NTUpIj4mI3hhOwkJCTx0aXRsZSBpZD0idGl0bGUyNDYyNyI+U2hlZXQuOTE4MzwvdGl0bGU+JiN4YTsJCQk8cGF0aCBpZD0icGF0aDI0NjI5IiBpbmtzY2FwZTpjb25uZWN0b3ItY3VydmF0dXJlPSIwIiBzdHlsZT0iZmlsbDojM0Y1NzY1OyIgZD0iTTEuNCw2Mi4wOGMwLTAuMzIsMC0wLjMyLDAtMC4zMmwwLDAgICAgIGMwLDAtMC4yLDAuMTctMC40LDAuMTdjMCwwLjE1LTAuMiwwLjE1LTAuNCwwLjE1cy0wLjQsMC0wLjQtMC4xNUMwLDYxLjkzLDAsNjEuNzYsMCw2MS41OGMwLTAuMzIsMC4yLTAuNSwwLjgtMC42NSAgICAgYzAuNiwwLDAuNiwwLDAuNiwwYzAtMC4zNS0wLjItMC42Ny0wLjYtMC42N2MtMC4yLDAtMC40LDAuMTctMC42LDAuMzJjMC0wLjE1LDAtMC4xNSwwLTAuMTVjMC0wLjE3LDAuMi0wLjE3LDAuMi0wLjE3ICAgICBjMC4yLDAsMC40LTAuMTgsMC40LTAuMThjMC40LDAsMC40LDAuMTgsMC42LDAuMzVjMC4yLDAsMC4yLDAuMTUsMC4yLDAuNWMwLDEuMTUsMCwxLjE1LDAsMS4xNUgxLjR6IE0wLjgsNjEuMDggICAgIGMtMC4yLDAtMC40LDAuMTgtMC40LDAuMThjLTAuMiwwLjE3LTAuMiwwLjE3LTAuMiwwLjMyYzAsMC4xOCwwLDAuMTgsMCwwLjM1YzAuMiwwLDAuNCwwLDAuNCwwYzAuMiwwLDAuNCwwLDAuNi0wLjE3ICAgICBjMC4yLTAuMTgsMC4yLTAuMzMsMC4yLTAuNWMwLTAuMTgsMC0wLjE4LDAtMC4xOEgwLjh6Ii8+JiN4YTsJCTwvZz4mI3hhOwkJPGcgaWQ9InNoYXBlOTE4NC01NyIgdHJhbnNmb3JtPSJ0cmFuc2xhdGUoMTEuMTM1MSwtNTIuMTk1NSkiPiYjeGE7CQkJPHRpdGxlIGlkPSJ0aXRsZTI0NjMyIj5TaGVldC45MTg0PC90aXRsZT4mI3hhOwkJCTxwYXRoIGlkPSJwYXRoMjQ2MzQiIGlua3NjYXBlOmNvbm5lY3Rvci1jdXJ2YXR1cmU9IjAiIHN0eWxlPSJmaWxsOiMzRjU3NjU7IiBkPSJNMC44LDYwLjQzbC0wLjE1LTAuMTcgICAgIGMtMC4xNSwwLTAuMzMsMC4xNy0wLjMzLDAuMzJjLTAuMTUsMC4xOC0wLjE1LDAuMzUtMC4xNSwwLjY4YzAsMC44MiwwLDAuODIsMCwwLjgyYy0wLjE3LDAtMC4xNywwLTAuMTcsMGMwLTEuODIsMC0xLjgyLDAtMS44MiAgICAgYzAuMTcsMCwwLjE3LDAsMC4xNywwYzAsMC4zMiwwLDAuMzIsMCwwLjMybDAsMGMwLTAuMTUsMC4xNS0wLjE1LDAuMTUtMC4zMmMwLjE4LDAsMC4xOC0wLjE4LDAuMzMtMC4xOGwwLjE1LDAuMThMMC44LDYwLjQzeiIvPiYjeGE7CQk8L2c+JiN4YTsJCTxnIGlkPSJzaGFwZTkxODUtNTkiIHRyYW5zZm9ybT0idHJhbnNsYXRlKDEyLjMzMjMsLTUyLjE5NTUpIj4mI3hhOwkJCTx0aXRsZSBpZD0idGl0bGUyNDYzNyI+U2hlZXQuOTE4NTwvdGl0bGU+JiN4YTsJCQk8cGF0aCBpZD0icGF0aDI0NjM5IiBpbmtzY2FwZTpjb25uZWN0b3ItY3VydmF0dXJlPSIwIiBzdHlsZT0iZmlsbDojM0Y1NzY1OyIgZD0iTTEuMiw2Mi4wOGMtMC4yLDAtMC4yLDAtMC40LDAgICAgIHMtMC40LTAuMTctMC40LTAuNTVjMC0xLjMsMC0xLjMsMC0xLjNjLTAuNCwwLTAuNCwwLTAuNCwwYzAtMC4yLDAtMC4yLDAtMC4yYzAuNCwwLDAuNCwwLDAuNCwwYzAtMC41NSwwLTAuNTUsMC0wLjU1bDAsMCAgICAgYzAuMiwwLDAuMiwwLDAuMi0wLjJjMCwwLjc1LDAsMC43NSwwLDAuNzVjMC42LDAsMC42LDAsMC42LDBjMCwwLjIsMCwwLjIsMCwwLjJjLTAuNiwwLTAuNiwwLTAuNiwwYzAsMS4zLDAsMS4zLDAsMS4zICAgICBjMCwwLjIsMCwwLjIsMCwwLjM4YzAuMiwwLDAuMiwwLDAuNCwwYzAsMCwwLDAsMC4yLDBWNjIuMDh6Ii8+JiN4YTsJCTwvZz4mI3hhOwkJPGcgaWQ9InNoYXBlOTE4Ni02MSIgdHJhbnNmb3JtPSJ0cmFuc2xhdGUoMS41OTk4OCkiPiYjeGE7CQkJPHRpdGxlIGlkPSJ0aXRsZTI0NjQyIj5TaGVldC45MTg2PC90aXRsZT4mI3hhOwkJCTxwYXRoIGlkPSJwYXRoMjQ2NDQiIGlua3NjYXBlOmNvbm5lY3Rvci1jdXJ2YXR1cmU9IjAiIHN0eWxlPSJmaWxsOiM1NTZBOEE7IiBkPSJNMTEuODksNThjLTAuMTMsMC0wLjEzLTAuMTMtMC4yNC0wLjEzICAgICBjLTEuNTYtMC45Mi0zLjQ5LTEuNC01LjQxLTEuNGMtMS45MSwwLTMuODQsMC40OC01LjQsMS40QzAuNzMsNTcuODcsMC43Myw1OCwwLjYsNThDMC4yNSw1OC4yMywwLDU4LjcsMCw1OS4xNyAgICAgYzAsMS43NSwwLDEuNzUsMCwxLjc1YzAsMC43LDAuNiwxLjE2LDEuMjEsMS4xNmMxMC4wNywwLDEwLjA3LDAsMTAuMDcsMGMwLjcyLDAsMS4yLTAuNDYsMS4yLTEuMTZjMC0xLjc1LDAtMS43NSwwLTEuNzUgICAgIEMxMi40OCw1OC43LDEyLjI0LDU4LjIzLDExLjg5LDU4eiIvPiYjeGE7CQk8L2c+JiN4YTsJCTxnIGlkPSJzaGFwZTkxODctNjMiIHRyYW5zZm9ybT0idHJhbnNsYXRlKDcuMjAyMjQsLTIuODAzNjEpIj4mI3hhOwkJCTx0aXRsZSBpZD0idGl0bGUyNDY0NyI+U2hlZXQuOTE4NzwvdGl0bGU+JiN4YTsJCQk8cGF0aCBpZD0icGF0aDI0NjQ5IiBpbmtzY2FwZTpjb25uZWN0b3ItY3VydmF0dXJlPSIwIiBzdHlsZT0iZmlsbDojOTY5Njk2OyIgZD0iTTEuMjcsNjEuNDdjMCwwLjM3LTAuMjUsMC42MS0wLjYzLDAuNjFsMCwwICAgICBDMC4yNSw2Mi4wOCwwLDYxLjg0LDAsNjEuNDdjMC0yLjQ2LDAtMi40NiwwLTIuNDZjMC0wLjI0LDAuMjUtMC41LDAuNjQtMC41bDAsMGMwLjM4LDAsMC42MywwLjI2LDAuNjMsMC41VjYxLjQ3eiIvPiYjeGE7CQk8L2c+JiN4YTsJPC9nPiYjeGE7PC9nPiYjeGE7PC9zdmc+;" vertex="1" parent="1">
          <mxGeometry x="590" y="167.39999999999998" width="156" height="125.21" as="geometry" />
        </mxCell>
        <mxCell id="7uIyVyYUi98pweWcv_3k-4" value="" style="shape=image;verticalLabelPosition=bottom;labelBackgroundColor=#ffffff;verticalAlign=top;aspect=fixed;imageAspect=0;image=data:image/svg+xml,PHN2ZyB4bWxuczpjYz0iaHR0cDovL2NyZWF0aXZlY29tbW9ucy5vcmcvbnMjIiB4bWxuczpkYz0iaHR0cDovL3B1cmwub3JnL2RjL2VsZW1lbnRzLzEuMS8iIHhtbG5zOmlua3NjYXBlPSJodHRwOi8vd3d3Lmlua3NjYXBlLm9yZy9uYW1lc3BhY2VzL2lua3NjYXBlIiB4bWxuczpyZGY9Imh0dHA6Ly93d3cudzMub3JnLzE5OTkvMDIvMjItcmRmLXN5bnRheC1ucyMiIHhtbG5zOnNvZGlwb2RpPSJodHRwOi8vc29kaXBvZGkuc291cmNlZm9yZ2UubmV0L0RURC9zb2RpcG9kaS0wLmR0ZCIgeG1sbnM6c3ZnPSJodHRwOi8vd3d3LnczLm9yZy8yMDAwL3N2ZyIgeG1sbnM9Imh0dHA6Ly93d3cudzMub3JnLzIwMDAvc3ZnIiB4bWxuczp4bGluaz0iaHR0cDovL3d3dy53My5vcmcvMTk5OS94bGluayIgdmVyc2lvbj0iMS4xIiBpZD0ic3ZnMTM4MDg0IiBpbmtzY2FwZTp2ZXJzaW9uPSIwLjkyLjMgKDI0MDU1NDYsIDIwMTgtMDMtMTEpIiBzb2RpcG9kaTpkb2NuYW1lPSJhcHBsaWNhdGlvbl9zZXJ2ZXJzLnN2ZyIgeD0iMHB4IiB5PSIwcHgiIHZpZXdCb3g9IjAgMCA0Ny43NiA0MC4zOCIgc3R5bGU9ImVuYWJsZS1iYWNrZ3JvdW5kOm5ldyAwIDAgNDcuNzYgNDAuMzg7IiB4bWw6c3BhY2U9InByZXNlcnZlIj4mI3hhOzxzb2RpcG9kaTpuYW1lZHZpZXcgYm9yZGVyY29sb3I9IiM2NjY2NjYiIGJvcmRlcm9wYWNpdHk9IjEiIGZpdC1tYXJnaW4tYm90dG9tPSIwIiBmaXQtbWFyZ2luLWxlZnQ9IjAiIGZpdC1tYXJnaW4tcmlnaHQ9IjAiIGZpdC1tYXJnaW4tdG9wPSIwIiBncmlkdG9sZXJhbmNlPSIxMCIgZ3VpZGV0b2xlcmFuY2U9IjEwIiBpZD0ibmFtZWR2aWV3MTM4MDg2IiBpbmtzY2FwZTpjdXJyZW50LWxheWVyPSJzdmcxMzgwODQiIGlua3NjYXBlOmN4PSIzMS44Mzk0NTUiIGlua3NjYXBlOmN5PSIyNi45MTc4NTYiIGlua3NjYXBlOnBhZ2VvcGFjaXR5PSIwIiBpbmtzY2FwZTpwYWdlc2hhZG93PSIyIiBpbmtzY2FwZTp3aW5kb3ctaGVpZ2h0PSIxMDE3IiBpbmtzY2FwZTp3aW5kb3ctbWF4aW1pemVkPSIxIiBpbmtzY2FwZTp3aW5kb3ctd2lkdGg9IjE5MjAiIGlua3NjYXBlOndpbmRvdy14PSItOCIgaW5rc2NhcGU6d2luZG93LXk9Ii04IiBpbmtzY2FwZTp6b29tPSIxNi4xMDIwMTUiIG9iamVjdHRvbGVyYW5jZT0iMTAiIHBhZ2Vjb2xvcj0iI2ZmZmZmZiIgc2hvd2dyaWQ9ImZhbHNlIj4mI3hhOwk8L3NvZGlwb2RpOm5hbWVkdmlldz4mI3hhOzxnIGlkPSJnMTM4MDgyIj4mI3hhOwk8dGl0bGUgaWQ9InRpdGxlMTM4MDc1Ij5QYWdlLTE8L3RpdGxlPiYjeGE7CTxnIGlkPSJzaGFwZTg2MjgtMSI+JiN4YTsJCTx0aXRsZSBpZD0idGl0bGUxMzgwNzciPkFwcGxpY2F0aW9uIFNlcnZlcnM8L3RpdGxlPiYjeGE7CQk8cGF0aCBpZD0icGF0aDEzODA3OSIgaW5rc2NhcGU6Y29ubmVjdG9yLWN1cnZhdHVyZT0iMCIgc3R5bGU9ImZpbGw6IzNGNTc2NTsiIGQ9Ik00Ny43MSwxMy43NXYtMS4wM2wtNS43Ny0zLjM1bC0xLjU5LDAuNDd2MC40MSAgICBsLTcuNzctNC41M2wtMi4yMiwwLjc3djAuMjZMMTguNzMsMEwwLjg3LDUuNzJ2MS45TDAsNy44OHYyNi41OGwxOC4wNiw1LjkybDEyLjMtNy4xNnYwLjQyaDEuNjVsOC4zNC00Ljg1djAuMTFoMS4yM2w2LjE4LTMuNjYgICAgVjEzLjhMNDcuNzEsMTMuNzV6IE0xOS4zNSwxLjM5bDExLjAxLDYuMDN2MC44MkwxOS4zNSwyLjYzVjEuMzl6IE0xOC43OCw1LjJsMTEuNTgsNC45djEuNjRMMTguNzgsNy41N1Y1LjJ6IE0xOC43OCwxMC4yNSAgICBsMTEuNTgsMy4yNXYxLjU5bC0xMS41OC0yLjM3VjEwLjI1eiBNMTguNzgsMTUuMjVsMTEuNTgsMS43djEuNDlsLTExLjU4LTAuNzJWMTUuMjV6IE0xOC43OCwyMC40NWwxMS41OC0wLjIxdjEuNjVsLTExLjU4LDAuOTMgICAgVjIwLjQ1eiBNMTguNzgsMjUuNWwxMS41OC0xLjg2djEuNmwtMTEuNTgsMi42M1YyNS41eiBNMTguNzgsMzAuNDlsMTEuNTgtMy40djEuNWwtMTEuNTgsNC40M1YzMC40OXogTTE4Ljc4LDM4LjA3VjM1LjcgICAgbDExLjU4LTUuMzF2MS42NUwxOC43OCwzOC4wN3ogTTMyLjk5LDYuNzVsNy4zNiw0LjAydjAuNTFsLTcuMzYtMy43MVY2Ljc1eiBNMzIuNTgsOS4zMmw3Ljc3LDMuMjV2MS4yM2wtNy43Ny0yLjc4VjkuMzJ6ICAgICBNMzIuNTgsMTIuODNsNy43NywyLjIxdjEuMDhsLTcuNzctMS42NVYxMi44M3ogTTMyLjU4LDE2LjI4bDcuNzcsMS4xM3YxLjAzbC03Ljc3LTAuNTFWMTYuMjh6IE0zMi41OCwxOS44M2w3Ljc3LTAuMTV2MS4xOCAgICBsLTcuNzcsMC41N1YxOS44M3ogTTMyLjU4LDIzLjMzbDcuNzctMS4xOHYxLjAzbC03Ljc3LDEuNzVWMjMuMzN6IE0zMi41OCwyNi43OGw3Ljc3LTIuMzZ2MS4xM2wtNy43NywyLjk5VjI2Ljc4eiBNMzIuNTgsMzEuOTQgICAgdi0xLjU1bDcuNzctMy42MXYxLjE0TDMyLjU4LDMxLjk0eiBNNDIuMjUsOS45OWw1LjMsMi45OXYwLjM2bC01LjMtMi43M1Y5Ljk5eiBNNDcuNzEsMjQuNzhsLTUuNzcsMi45OHYtMS4xM2w1Ljc3LTIuNjhWMjQuNzh6ICAgICBNNDcuNzEsMjMuMTNsLTUuNzcsMi4yMXYtMS4yM2w1Ljc3LTEuNzZWMjMuMTN6IE00Ny43MSwyMS41M2wtNS43NywxLjI5di0xLjE5bDUuNzctMC44N1YyMS41M3ogTTQ3LjcxLDE5LjkzbC01Ljc3LDAuNDJ2LTEuMTQgICAgbDUuNzctMC4wNVYxOS45M3ogTTQ3LjcxLDE4LjM0bC01Ljc3LTAuNDF2LTEuMTRsNS43NywwLjc3VjE4LjM0eiBNNDcuNzEsMTYuNjlsLTUuNzctMS4xOXYtMS4xM2w1Ljc3LDEuNTVWMTYuNjl6IE00Ny43MSwxNS4wOSAgICBsLTUuNzctMi4wMVYxMS45bDUuNzcsMi40N1YxNS4wOXoiLz4mI3hhOwk8L2c+JiN4YTs8L2c+JiN4YTs8L3N2Zz4=;" vertex="1" parent="1">
          <mxGeometry x="590" y="440" width="156" height="130" as="geometry" />
        </mxCell>
        <mxCell id="7uIyVyYUi98pweWcv_3k-5" value="" style="shape=image;verticalLabelPosition=bottom;labelBackgroundColor=#ffffff;verticalAlign=top;aspect=fixed;imageAspect=0;image=data:image/svg+xml,PHN2ZyB4bWxuczpjYz0iaHR0cDovL2NyZWF0aXZlY29tbW9ucy5vcmcvbnMjIiB4bWxuczpkYz0iaHR0cDovL3B1cmwub3JnL2RjL2VsZW1lbnRzLzEuMS8iIHhtbG5zOmlua3NjYXBlPSJodHRwOi8vd3d3Lmlua3NjYXBlLm9yZy9uYW1lc3BhY2VzL2lua3NjYXBlIiB4bWxuczpyZGY9Imh0dHA6Ly93d3cudzMub3JnLzE5OTkvMDIvMjItcmRmLXN5bnRheC1ucyMiIHhtbG5zOnNvZGlwb2RpPSJodHRwOi8vc29kaXBvZGkuc291cmNlZm9yZ2UubmV0L0RURC9zb2RpcG9kaS0wLmR0ZCIgeG1sbnM6c3ZnPSJodHRwOi8vd3d3LnczLm9yZy8yMDAwL3N2ZyIgeG1sbnM9Imh0dHA6Ly93d3cudzMub3JnLzIwMDAvc3ZnIiB4bWxuczp4bGluaz0iaHR0cDovL3d3dy53My5vcmcvMTk5OS94bGluayIgdmVyc2lvbj0iMS4xIiBpZD0ic3ZnOTk3MDUiIGlua3NjYXBlOnZlcnNpb249IjAuOTIuMyAoMjQwNTU0NiwgMjAxOC0wMy0xMSkiIHNvZGlwb2RpOmRvY25hbWU9ImRvY3VtZW50ZGJfMS5zdmciIHg9IjBweCIgeT0iMHB4IiB2aWV3Qm94PSIwIDAgMTkuNzIgMjUuNjQiIHN0eWxlPSJlbmFibGUtYmFja2dyb3VuZDpuZXcgMCAwIDE5LjcyIDI1LjY0OyIgeG1sOnNwYWNlPSJwcmVzZXJ2ZSI+JiN4YTs8c29kaXBvZGk6bmFtZWR2aWV3IGJvcmRlcmNvbG9yPSIjNjY2NjY2IiBib3JkZXJvcGFjaXR5PSIxIiBmaXQtbWFyZ2luLWJvdHRvbT0iMCIgZml0LW1hcmdpbi1sZWZ0PSIwIiBmaXQtbWFyZ2luLXJpZ2h0PSIwIiBmaXQtbWFyZ2luLXRvcD0iMCIgZ3JpZHRvbGVyYW5jZT0iMTAiIGd1aWRldG9sZXJhbmNlPSIxMCIgaWQ9Im5hbWVkdmlldzk5NzA3IiBpbmtzY2FwZTpjdXJyZW50LWxheWVyPSJzdmc5OTcwNSIgaW5rc2NhcGU6Y3g9IjE0Ljc3NjAwNiIgaW5rc2NhcGU6Y3k9Ii0xLjA5NjkzNDkiIGlua3NjYXBlOnBhZ2VvcGFjaXR5PSIwIiBpbmtzY2FwZTpwYWdlc2hhZG93PSIyIiBpbmtzY2FwZTp3aW5kb3ctaGVpZ2h0PSIxMDE3IiBpbmtzY2FwZTp3aW5kb3ctbWF4aW1pemVkPSIxIiBpbmtzY2FwZTp3aW5kb3ctd2lkdGg9IjE5MjAiIGlua3NjYXBlOndpbmRvdy14PSItOCIgaW5rc2NhcGU6d2luZG93LXk9Ii04IiBpbmtzY2FwZTp6b29tPSIxMS45OTc0MDQiIG9iamVjdHRvbGVyYW5jZT0iMTAiIHBhZ2Vjb2xvcj0iI2ZmZmZmZiIgc2hvd2dyaWQ9ImZhbHNlIj4mI3hhOwk8L3NvZGlwb2RpOm5hbWVkdmlldz4mI3hhOzxnIGlkPSJnOTk3MDMiIHRyYW5zZm9ybT0idHJhbnNsYXRlKC0xNy40OTksLTAuNjM2OSkiPiYjeGE7CTx0aXRsZSBpZD0idGl0bGU5OTY5MyI+UGFnZS0xPC90aXRsZT4mI3hhOwk8ZyBpZD0iZ3JvdXAzNzAyLTEiIHRyYW5zZm9ybT0idHJhbnNsYXRlKDE3LjQ5OSwtMjcuOTIzMSkiPiYjeGE7CQk8dGl0bGUgaWQ9InRpdGxlOTk2OTUiPkRvY3VtZW50REIgIzE8L3RpdGxlPiYjeGE7CQk8ZyBpZD0ic2hhcGUzNzAzLTIiPiYjeGE7CQkJPHRpdGxlIGlkPSJ0aXRsZTk5Njk3Ij5TaGVldC4zNzAzPC90aXRsZT4mI3hhOwkJCTxwYXRoIGlkPSJwYXRoOTk2OTkiIGlua3NjYXBlOmNvbm5lY3Rvci1jdXJ2YXR1cmU9IjAiIHN0eWxlPSJmaWxsOiMzRjU3NjU7IiBkPSJNOS44NiwyOC41NmMtNS40OCwwLTkuODYsMS44My05Ljg2LDMuOHYxNy45NyAgICAgYzAsMS45Nyw0LjQ2LDMuODcsOS44NiwzLjg3YzUuNDgsMCw5Ljg2LTEuNzUsOS44Ni0zLjhWMzIuNDNDMTkuNzIsMzAuNDYsMTUuMjcsMjguNTYsOS44NiwyOC41NnogTTAuMjIsNTEuMTN2LTAuMjIgICAgIEMwLjIyLDUwLjk5LDAuMjIsNTEuMDYsMC4yMiw1MS4xM3ogTTcuMDEsMzkuOTZjLTAuNjYsMC0wLjk1LTAuMjItMC45NSwwLjUxdjEuMzhjMCwxLjAzLTAuMTQsMS42OC0wLjg3LDEuOXYwLjA4ICAgICBjMC43MywwLjI5LDAuODcsMS4wOSwwLjg3LDIuMzN2MS42MWMwLDAuNTEsMC4wOCwwLjUxLDAuMjIsMC43M2MwLjE1LDAuMjIsMC4zNywwLjIyLDAuNzMsMC4yMnYwLjQ0djAuOTUgICAgIGMtMS4wMiwwLTEuNzUtMC4yMi0yLjE5LTAuNTljLTAuNDQtMC4zNi0wLjY2LTEuMDktMC42Ni0yLjExdi0xLjc2YzAtMC45NS0wLjM2LTAuOTUtMC45NS0wLjk1di0xLjgyYzAuNjYsMCwwLjk1LDAsMC45NS0wLjgxICAgICB2LTEuMzhjMC0wLjg4LDAuMjItMS40NiwwLjY2LTEuNzZjMC40NC0wLjM2LDEuMTctMC41MSwyLjE5LTAuNTFMNy4wMSwzOS45NnogTTE2LjczLDQzLjMydjEuNDZjLTAuNjYsMC0wLjk1LDAtMC45NSwwLjk1djEuNjggICAgIGMwLDEuMDItMC4yMiwxLjc1LTAuNjYsMi4xOWMtMC40NCwwLjM2LTEuMTcsMC41OC0yLjI2LDAuNTh2LTEuMzljMC4yOSwwLDAuNTgtMC4wNywwLjczLTAuMjJjMC4xNC0wLjIxLDAuMjItMC4yMSwwLjIyLTAuNzMgICAgIHYtMS42YzAtMS4yNCwwLjIxLTEuOTcsMC45NC0yLjM0di0wLjA3Yy0wLjczLTAuMjItMC45NC0wLjg4LTAuOTQtMS45OHYtMS4zMWMwLTAuNzMtMC4zNy0wLjUxLTAuOTUtMC41MXYtMS41NCAgICAgYzEuMDIsMCwxLjc1LDAuMjIsMi4xOSwwLjUyYzAuNDQsMC4zNiwwLjczLDAuOTUsMC43MywxLjc1djEuMzljMCwwLjgsMC4yOSwwLjczLDAuOTUsMC43M0wxNi43Myw0My4zMnogTTkuODYsMzQuMTEgICAgIGMtMy44NywwLTcuMDEtMC45NS03LjAxLTIuMTJjMC0xLjE3LDMuMTQtMi4xMSw3LjAxLTIuMTFzNy4wMSwwLjk0LDcuMDEsMi4xMUMxNi44NywzMy4yNCwxMy43MywzNC4xMSw5Ljg2LDM0LjExeiIvPiYjeGE7CQk8L2c+JiN4YTsJPC9nPiYjeGE7PC9nPiYjeGE7PC9zdmc+;" vertex="1" parent="1">
          <mxGeometry x="400" y="447" width="89.23" height="116" as="geometry" />
        </mxCell>
        <mxCell id="7uIyVyYUi98pweWcv_3k-6" value="" style="shape=image;verticalLabelPosition=bottom;labelBackgroundColor=#ffffff;verticalAlign=top;aspect=fixed;imageAspect=0;image=data:image/svg+xml,PHN2ZyB4bWxuczpjYz0iaHR0cDovL2NyZWF0aXZlY29tbW9ucy5vcmcvbnMjIiB4bWxuczpkYz0iaHR0cDovL3B1cmwub3JnL2RjL2VsZW1lbnRzLzEuMS8iIHhtbG5zOmlua3NjYXBlPSJodHRwOi8vd3d3Lmlua3NjYXBlLm9yZy9uYW1lc3BhY2VzL2lua3NjYXBlIiB4bWxuczpyZGY9Imh0dHA6Ly93d3cudzMub3JnLzE5OTkvMDIvMjItcmRmLXN5bnRheC1ucyMiIHhtbG5zOnNvZGlwb2RpPSJodHRwOi8vc29kaXBvZGkuc291cmNlZm9yZ2UubmV0L0RURC9zb2RpcG9kaS0wLmR0ZCIgeG1sbnM6c3ZnPSJodHRwOi8vd3d3LnczLm9yZy8yMDAwL3N2ZyIgeG1sbnM9Imh0dHA6Ly93d3cudzMub3JnLzIwMDAvc3ZnIiB4bWxuczp4bGluaz0iaHR0cDovL3d3dy53My5vcmcvMTk5OS94bGluayIgdmVyc2lvbj0iMS4xIiBpZD0ic3ZnMTg1OTAzIiBpbmtzY2FwZTp2ZXJzaW9uPSIwLjkyLjMgKDI0MDU1NDYsIDIwMTgtMDMtMTEpIiBzb2RpcG9kaTpkb2NuYW1lPSJucG0uc3ZnIiB4PSIwcHgiIHk9IjBweCIgdmlld0JveD0iMCAwIDQ1Ljc1IDE5LjUiIHN0eWxlPSJlbmFibGUtYmFja2dyb3VuZDpuZXcgMCAwIDQ1Ljc1IDE5LjU7IiB4bWw6c3BhY2U9InByZXNlcnZlIj4mI3hhOzxzb2RpcG9kaTpuYW1lZHZpZXcgYm9yZGVyY29sb3I9IiM2NjY2NjYiIGJvcmRlcm9wYWNpdHk9IjEiIGZpdC1tYXJnaW4tYm90dG9tPSIwIiBmaXQtbWFyZ2luLWxlZnQ9IjAiIGZpdC1tYXJnaW4tcmlnaHQ9IjAiIGZpdC1tYXJnaW4tdG9wPSIwIiBncmlkdG9sZXJhbmNlPSIxMCIgZ3VpZGV0b2xlcmFuY2U9IjEwIiBpZD0ibmFtZWR2aWV3MTg1OTA1IiBpbmtzY2FwZTpjdXJyZW50LWxheWVyPSJzdmcxODU5MDMiIGlua3NjYXBlOmN4PSIzMC41IiBpbmtzY2FwZTpjeT0iMTIuOTk5OTk3IiBpbmtzY2FwZTpwYWdlb3BhY2l0eT0iMCIgaW5rc2NhcGU6cGFnZXNoYWRvdz0iMiIgaW5rc2NhcGU6d2luZG93LWhlaWdodD0iMTAxNyIgaW5rc2NhcGU6d2luZG93LW1heGltaXplZD0iMSIgaW5rc2NhcGU6d2luZG93LXdpZHRoPSIxOTIwIiBpbmtzY2FwZTp3aW5kb3cteD0iLTgiIGlua3NjYXBlOndpbmRvdy15PSItOCIgaW5rc2NhcGU6em9vbT0iMjguMjg1NzE0IiBvYmplY3R0b2xlcmFuY2U9IjEwIiBwYWdlY29sb3I9IiNmZmZmZmYiIHNob3dncmlkPSJmYWxzZSI+JiN4YTsJPC9zb2RpcG9kaTpuYW1lZHZpZXc+JiN4YTs8ZyBpZD0iZzE4NTkwMSIgdHJhbnNmb3JtPSJ0cmFuc2xhdGUoLTAuNzUsLTAuNzUwMDExNzEpIj4mI3hhOwk8dGl0bGUgaWQ9InRpdGxlMTg1ODczIj5QYWdlLTE8L3RpdGxlPiYjeGE7CTxnIGlkPSJncm91cDkyMS0xIiB0cmFuc2Zvcm09InRyYW5zbGF0ZSgwLjc1LC0wLjc1KSI+JiN4YTsJCTx0aXRsZSBpZD0idGl0bGUxODU4NzUiPm5wbTwvdGl0bGU+JiN4YTsJCTxnIGlkPSJncm91cDkyMi0yIj4mI3hhOwkJCTx0aXRsZSBpZD0idGl0bGUxODU4NzciPkZpbGVOYW1lczwvdGl0bGU+JiN4YTsJCQk8ZyBpZD0ic2hhcGU5MjMtMyI+JiN4YTsJCQkJPHRpdGxlIGlkPSJ0aXRsZTE4NTg3OSI+cG9seWdvbjQyNjI8L3RpdGxlPiYjeGE7CQkJCTxwYXRoIGlkPSJwYXRoMTg1ODgxIiBpbmtzY2FwZTpjb25uZWN0b3ItY3VydmF0dXJlPSIwIiBzdHlsZT0iZmlsbDojQ0IzODM3OyIgZD0iTTAsMThoMTMuNXYzaDl2LTNoMjMuMjVWMS41SDBWMTh6Ii8+JiN4YTsJCQk8L2c+JiN4YTsJCQk8ZyBpZD0ic2hhcGU5MjQtNSIgdHJhbnNmb3JtPSJ0cmFuc2xhdGUoMTUuNzUsLTMpIj4mI3hhOwkJCQk8dGl0bGUgaWQ9InRpdGxlMTg1ODg0Ij5wYXRoNDI2NDwvdGl0bGU+JiN4YTsJCQkJPHBhdGggaWQ9InBhdGgxODU4ODYiIGlua3NjYXBlOmNvbm5lY3Rvci1jdXJ2YXR1cmU9IjAiIHN0eWxlPSJmaWxsOiNGRkZGRkY7IiBkPSJNMCw3LjVWMjFoNC41di0zaDUuMjVWNy41SDB6IE04LjI1LDE1Ljc1aC0zICAgICAgVjEwLjVoM1YxNS43NXoiLz4mI3hhOwkJCTwvZz4mI3hhOwkJCTxnIGlkPSJzaGFwZTkyNS03IiB0cmFuc2Zvcm09InRyYW5zbGF0ZSgyNy43NSwtNikiPiYjeGE7CQkJCTx0aXRsZSBpZD0idGl0bGUxODU4ODkiPnBvbHlnb240MjY2PC90aXRsZT4mI3hhOwkJCQk8cGF0aCBpZD0icGF0aDE4NTg5MSIgaW5rc2NhcGU6Y29ubmVjdG9yLWN1cnZhdHVyZT0iMCIgc3R5bGU9ImZpbGw6I0ZGRkZGRjsiIGQ9Ik0wLDEwLjVWMjFoNS4yNXYtNy41SDcuNVYyMWgzdi03LjVoMi4yNVYyMWgzICAgICAgVjEwLjVINS4yNUgzLjg2SDB6Ii8+JiN4YTsJCQk8L2c+JiN4YTsJCQk8ZyBpZD0ic2hhcGU5MjYtOSIgdHJhbnNmb3JtPSJ0cmFuc2xhdGUoMi4yNSwtNikiPiYjeGE7CQkJCTx0aXRsZSBpZD0idGl0bGUxODU4OTQiPnBvbHlnb240MjY4PC90aXRsZT4mI3hhOwkJCQk8cGF0aCBpZD0icGF0aDE4NTg5NiIgaW5rc2NhcGU6Y29ubmVjdG9yLWN1cnZhdHVyZT0iMCIgc3R5bGU9ImZpbGw6I0ZGRkZGRjsiIGQ9Ik01LjI1LDIxdi04LjI1aDNWMjFoM1YxMC41SDBWMjFINS4yNXoiLz4mI3hhOwkJCTwvZz4mI3hhOwkJPC9nPiYjeGE7CTwvZz4mI3hhOzwvZz4mI3hhOzwvc3ZnPg==;" vertex="1" parent="1">
          <mxGeometry x="210" y="475" width="138" height="60" as="geometry" />
        </mxCell>
        <mxCell id="7uIyVyYUi98pweWcv_3k-7" value="" style="strokeColor=#d79b00;shadow=1;strokeWidth=1;rounded=1;absoluteArcSize=1;arcSize=2;fillColor=#ffe6cc;" vertex="1" parent="1">
          <mxGeometry x="70" y="473" width="130" height="90" as="geometry" />
        </mxCell>
        <mxCell id="7uIyVyYUi98pweWcv_3k-8" value="Firebase" style="sketch=0;dashed=0;connectable=0;html=1;fillColor=#ffe6cc;strokeColor=#d79b00;shape=mxgraph.gcp2.firebase;part=1;labelPosition=right;verticalLabelPosition=middle;align=left;verticalAlign=middle;spacingLeft=5;fontSize=12;" vertex="1" parent="7uIyVyYUi98pweWcv_3k-7">
          <mxGeometry width="32.4" height="45" relative="1" as="geometry">
            <mxPoint x="5" y="7" as="offset" />
          </mxGeometry>
        </mxCell>
        <mxCell id="7uIyVyYUi98pweWcv_3k-9" value="" style="shape=image;verticalLabelPosition=bottom;labelBackgroundColor=default;verticalAlign=top;aspect=fixed;imageAspect=0;image=data:image/png,iVBORw0KGgoAAAANSUhEUgAAA7kAAAEQCAYAAAB1K7PPAAAAAXNSR0IArs4c6QAAAVlpVFh0WE1MOmNvbS5hZG9iZS54bXAAAAAAADx4OnhtcG1ldGEgeG1sbnM6eD0iYWRvYmU6bnM6bWV0YS8iIHg6eG1wdGs9IlhNUCBDb3JlIDUuNC4wIj4KICAgPHJkZjpSREYgeG1sbnM6cmRmPSJodHRwOi8vd3d3LnczLm9yZy8xOTk5LzAyLzIyLXJkZi1zeW50YXgtbnMjIj4KICAgICAgPHJkZjpEZXNjcmlwdGlvbiByZGY6YWJvdXQ9IiIKICAgICAgICAgICAgeG1sbnM6dGlmZj0iaHR0cDovL25zLmFkb2JlLmNvbS90aWZmLzEuMC8iPgogICAgICAgICA8dGlmZjpPcmllbnRhdGlvbj4xPC90aWZmOk9yaWVudGF0aW9uPgogICAgICA8L3JkZjpEZXNjcmlwdGlvbj4KICAgPC9yZGY6UkRGPgo8L3g6eG1wbWV0YT4KTMInWQAAQABJREFUeAHtnXm0ZVVh5m89agKUUYpBhgJBHFAEEQEVLMfEGGMSJwhgzLI7w+p0Or2yeq3uP9Kd5I/uXqu7V7o7nW6NrTEU2A6JiYwiyAOcohQIikocKECEYhQUanzv9fe99/arW+/d4Zyz9xnvb6/66tx37tnTb5977/7O3mefXo8AAQhAAAIQgAAEIAABCEAAAhCAAAQgAAEIQAACEIAABCAAAQhAAAIQgAAEIAABCEAAAhCAAAQgAAEIQAACEIAABCAAAQhAAAIQgAAEIAABCIwisGrUm7w32QTO+siNZx9x/hs279k+e0oeEnN5Dl48dq5ApAJRcpcsbx6Djl+7YepfX//Lv/0XvS0f3p27AESAAAQgAAEIQAACEIAABHIRmMp1NAdPDIGiBndiAGWsKAY3IygOgwAEIAABCEAAAhCAQCICmNxEILuUTKzBZXrAwtmAwe3Sp4K6QAACEIAABCAAAQi0hQAmty0tVVE5Yw1uRcVsfDYY3MY3EQWEAAQgAAEIQAACEOgoAUxuRxu2SLUwuEWorYyDwV3JhD0QgAAEIAABCEAAAhCoigAmtyrSDc+nboO7qqFznPMWC4Pb8BOd4kEAAhCAAAQgAAEIdJ4AJrfzTTy+gnUb3PElbMcR61hFuR0NRSkhAAEIQAACEIAABDpNAJPb6eYdXzkM7nhGWY6wwb2OxwRlQcUxEIAABCAAAQhAAAIQKJUAJrdUvM1OHIObpn0wuGk4kgoEIAABCEAAAhCAAARSEMDkpqDYwjQwuGkaDYObhiOpQAACEIAABCAAAQhAIBWB/VIlRDrtIfDKj37x1Rte94bNe7bPntKeUq8sad5FoVamELdn/YapP9QU5f/V2/Lh3XEpERsCEIAABCAAAQhAAAIQSEVgdaqESKcdBGxwj3jtJhvck9tR4maW0gb32os2/UVvy/SeZpaQUkEAAhCAAAQgAAEIQGAyCTBdeYLaPRjcGQxuVKsvGdxpDG4USCJDAAIQgAAEIAABCECgBAKY3BKgNjHJ+SnKGsHF4Ma1DgY3jh+xIQABCEAAAhCAAAQgUDYBTG7ZhBuQPgY3TSNgcNNwJBUIQAACEIAABCAAAQiUSQCTWybdBqSNwU3TCBjcNBxJBQIQgAAEIAABCEAAAmUTwOSWTbjG9DG4aeBjcNNwJBUIQAACEIAABCAAAQhUQQCTWwXlGvLA4KaBrufgLqyizCJTaYCSCgQgAAEIQAACEIAABEomgMktGXAdyWNw01DH4KbhSCoQgAAEIAABCEAAAhCokgAmt0raFeSFwU0DGYObhiOpQAACEIAABCAAAQhAoGoCmNyqiZeYHwY3DVwMbhqOpAIBCEAAAhCAAAQgAIE6CGBy66BeQp4Y3DRQMbhpOJIKBCAAAQhAAAIQgAAE6iKwuq6MyTcdgVd/7KZzDnvN6y+b2T57crpUJy+ltUdN/cG179v0lz0WmZq8xqfGEIAABCAAAQhAAAKdIbBfZ2oyoRWZN7jnvX7zzA4MbswpYIN7HQY3BiFxIQABCEAAAhCAAAQg0AgCTFduRDMUK0SfwX1BsRSIZQIYXM4DCEAAAhCAAAQgAAEIdIcAJrelbYnBTdNwGNw0HEkFAhCAAAQgAAEIQAACTSGAyW1KS+Qohw3u4QtTlCd6BHcuB7NBh2JwB1FhHwQgAAEIQAACEIAABNpNAJPbsvbD4KZpMAxuGo6kAgEIQAACEIAABCAAgaYRwOQ2rUVGlCfW4MaOfI4oWqvewuC2qrkoLAQgAAEIQAACEIAABHIRwOTmwlXfwbEGt76SNytnDG6z2oPSQAACEIAABCAAAQhAIDUBTG5qoiWkh8FNAxWDm4YjqUAAAhCAAAQgAAEIQKDJBDC5TW4dlW2Ywe3a1OO5kiuEwW34iU7xIAABCEAAAhCAAAQgkIgAJjcRyDKSGWZwy8iry2licLvcutQNAhCAAAQgAAEIQAAC+xJYve+f/NUUAmd/fPrcw8+54LKZHbMT/Zig2PZYd+TU71/7vk3/pzc9vSc2LeJDAAIQgAAEIAABCEAAAs0ngMltYBvZ4D7vnAs2y+Ce1MDijS1SyTOPx+YfDpg3uBdicAMPthCAAAQgAAEIQAACEJgEAkxXblgrt93gNgUnBrcpLUE5IAABCEAAAhCAAAQgUC0BTG61vEfmVqbBbcro6kgAid7E4CYCSTIQgAAEIAABCEAAAhBoIQFMbkMaLY/BnSTDmrd5MLh5iXE8BCAAAQhAAAIQgAAEukUAk9uA9sxjcBtQ3EYUYZDRx+A2omkoBAQgAAEIQAACEIAABGolgMmtFX+vh8FN0wAY3DQcSQUCEIAABCAAAQhAAAJtJ4DJrbEFMbgL8OcGDcvmaBcMbg5YHAoBCEAAAhCAAAQgAIGOE8Dk1tTARQ1uET9YJE5RLFXm5TJicIu2FPEgAAEIQAACEIAABCDQTQKY3Bra1Qb3iHPb+xzcGpANzBKDOxALOyEAAQhAAAIQgAAEIDDRBDC5FTc/BjcNcAxuGo6kAgEIQAACEIAABCAAga4RwORW2KIY3DSw1x459fvXXrjp//Smp/ekSZFUIAABCEAAAhCAAAQgAIGuEFjdlYo0vR7nffzL5x567nmbZ3bMnuSyFllsqer7XZvIVCO4/+KaCzd9CIPbxNahTBCAAAQgAAEIQAACEKifwH71F6H7JZg3uOecd/nMzgWDW2WNqzTGRfLKY/YxuFWeOeQFAQhAAAIQgAAEIACBdhJgunLJ7dZncE8sOatOJ4/B7XTzUjkIQAACEIAABCAAAQgkI4DJTYZyZULDDG6e0cuVqU7eHgzu5LU5NYYABCAAAQhAAAIQgEBRApjcouTGxBtmcMdEG/p2oanAQ1NrzxsY3Pa0FSWFAAQgAAEIQAACEIBAEwhgcktohVEGl1Hc7MAxuNlZcSQEIAABCEAAAhCAAAQgsEAAk5v4TBhlcBNn1ajkCo00j4iEwW1U81IYCEAAAhCAAAQgAAEItIYAJjdhU5VlcEd4wYSlb05SGNzmtAUlgQAEIAABCEAAAhCAQNsIYHITtVgWg1vlVOW2GmMMbqITkmQgAAEIQAACEIAABCAwoQQwuQkaPovBLZpNW81qkfpicItQIw4EIAABCEAAAhCAAAQg0E8Ak9tPo8DrrAa3ylHcAtWIilLEiC/ngcGNagIiQwACEIAABCAAAQhAAAKLBDC5EadCVoMbkUWhqEVMZ6GMEkXC4CYCSTIQgAAEIAABCEAAAhCAQG81DIoROPeyr5x36Nnnbp7ZOXviuBSWj1qOOz683zazGsqdZ7v2yKnfu+bCTX/Vm57ekycex0KgJgKnKd9XS+uk2ZrK0OVs16hyD0q3SI8lrOhapXW+9FJpZ0S6bvdvS7dKuyLSISoEIAABCEAAAiUSwOQWgLtocC+Xwd1YIHqpUao2xjH52eBei8Et9Xwg8eQEDlKKvrC1vzSTPHUStIn014q3KYNnLR0pnSI9G5HwAYr7qMQsqAiIRIUABCAAAQiUTYAf6pyEg8GdzWhwGcVdCdhMMLgrubAHAhCAAAQgAAEIQAACEIgngMnNwTCvwc2R9EQdup4R3IlqbyoLAQhAAAIQgAAEIACBKgkwXTkj7SIGt+pR3Jipwxkx7HNYkfzWHTX1e1e/l3tw9wHJHxCAAAQgAAEIQAACEIBAMgKM5GZAWcTgZkh24g7B4E5ck1NhCEAAAhCAAAQgAAEIVE4AkzsGeVGD2/VR3DHYVryNwV2BhB0QgAAEIAABCEAAAhCAQAkEMLkjoFZtcEcUpXFv5ZmqjMFtXPNRIAhAAAIQgAAEIAABCHSWACZ3SNMWNbhDksu0O49xzJRgAw7C4DagESgCBCAAAQhAAAIQgAAEJogAJndAY8cY3KLTlAcUI/OupppjDG7mJuRACEAAAhCAAAQgAAEIQCARAUzuMpB1GdymGtVleOb/zFJWDO4gcuyDAAQgAAEIQAACEIAABMomgMntIxxjcPuSqfRlFsNZaYGUGQa3auLkBwEIQAACEIAABCAAAQgEAjwnd5HEOZu/+ppDX3XO5tmdsxsDnDzbmGnKTTSqeeref+z6o6Z+96r3bvpIb3p6T/9+XkMAAhCAAAQgAAEIQAACEKiCACZXlG1wDzvrnCtkcI8vAj3G4BbJL8SpwxyPyhODG1qGLQQgAAEIQKAUAoco1ddJJ0q7InJYp7jfkr4YkUabop6kwv6a9POIQq9S3N3SHdKWiHSICgEIVEBg4k3uksHdVczgxrbRKNMYm3aV8TG4VdImLwhAAAIQmFACa1TvY6STpR0RDPZX3Icj4rct6oEq8CnSUxEF9y1+O6WtEWkQFQIQqIjARN+Tm8LgxozixhjcmLhFz61heWJwixIlHgQgAAEIQAACEIAABCCQmsDEmty6DW5MQw4zmzFpFo2LwS1KjngQgAAEIAABCEAAAhCAQBkEJnK6chMMbpOMatETC4NblBzxJpyALy4+Kz0meeqb7/MiLBDwVMyfSOZCgAAEIAABCEAAAoUITJzJbbvBrcscL88Xg1vo80YkCJiAjdxD0melSbonTtUlQAACEIAABCAAgfIJTNR05SYY3PKbtPwcMLjlMyYHCEAAAhCAAAQgAAEIQKAYgYkxuSkMbjHE+8ZaPiK677uj/4qJOzrl0e/254vBHc2KdyEAAQhAAAIQgAAEIACBeglMhMlNZXBjVlJ2M/ebxbzNHhM3b17DjsfgDiPDfghAAAIQgAAEIAABCECgKQQ6b3K7YHDrPFmCucbg1tkK5A0BCEAAAhCAAAQgAAEIZCXQ6YWnXn3Fba897MxXXj67a/b4rEAGHRc7gjsozTz7gtHMEyflseuOmvrtq9676aO96ek9KdMlLQhAAAIQgAAEIAABCEAAAqkJdNbk2uAefuYrr5DBPS4GWgqDG2NSY+LG1NtxnbcN7tUY3FiUxIcABCAAAQhAAAIQgAAEKiLQyenKXTG4FZ0DQ7PB4A5FwxsQgAAEIAABCEAAAhCAQEMJdM7kpjC4Hr2tewTX50udo7j7M4Lb0I8sxYIABCAAAQhAAAIQgAAERhHolMlNZXBHAcv6XqxBjY2ftZyDjrPB/RxTlAehYR8EIAABCEAAAhCAAAQg0HACnTG5XTK4dZ4zGNw66ZM3BCAAAQhAAAIQgAAEIBBLoBMmt2sGt65RXAxu7MeJ+BCAAAQgAAEIQAACEIBA3QRab3IxuGlOIQxuGo6kAgEIQAACEIAABCAAAQjUS6DVjxCKNbgpFpdK2XyM4KakSVoQgAAEIAABCEAAAhCAwCQSaO1IbtMMbl0GNfakZQQ3liDxIQABCEAAAhCAAAQgAIEmEWjlSG6TDG4qc5sqnTwnFwY3Dy2OhQAEIAABCEAAAhCAAATaQKB1JjfG4KaenpzKmKZKJ88Jh8HNQ4tjIQABCEAAAhCAAAQgAIG2EGiVyX3NJ7a87uAzzrx8dtfscXkBY3D3Elt/5NQ/03Nw/7o3Pb1n715eQQACEIAABCAAAQhAAAIQaD+B1pjcRYN7hQzusXmwpza3zjvVyGuqdPLwsMG98n0Y3DzMOBYCEIAABCAAAQhAAAIQaA+BVpjcIga3DHPrZk1lTFOlk+dUw+DmocWxEIAABCAAAQhAAAIQgEAbCTR+dWUMbprTCoObhiOpQAACEIAABCAAAQhAAALNJtDokdy8Bres0Vs3YaqR11Tp5DmtMLh5aHEsBCAAAQhAAAIQgAAEINBmAo01uXkMbhvMrU8SDG6bPyqUHQIQgAAEIAABCECgRAL2JYdLB0mzy/JxN/op6fFl+/kTAgMJNNLkZjG4ZRrbQCqlKU2ZVijfuC0juOMI8T4EIAABCEAAAhCAQEUE7DsOk46UTpAOWfz7UG2fKy03tto1MKzS3u3Sj6Vd0o+kp6Vt0kMSoXkE3GbPkfyEnJOkDdKB0lHSWmm5VfLfP5Pcps9KD0huZ/+9WxobGmdyxxncKsytqS0nPZbkiANSpjUim33ewuDug4M/IAABCEAAAhCAAASqJbCfsrOhPUV6gXSCZGMzyMwO2qdDBwZ3rddLJy+++5LFrY2UTe/90g+kH0o2RzMSoXoCXvvJ7X+6dIbkUfpB7TzIKrktPaJvOTgN7/PjT++VviHdI9kADwyNMrnDDG5VxtaEBlEeSC7jztTpZckWg5uFEsdAAAIQgAAEIAABCCQmYGN7tGRTY2PiUdp+kznI5OiQJMHd7jWSDbVlk2UT9E3p25KNb5n5K3mCCPgCxLnSmdIxUmj/WPZuX59fvrjhCyc7pZulL0grQmNM7iCDW6W5NZnUhjR1eitab8AODO4AKOyCAAQg0D4C7qBdIO0vhQ5C3lq4g+dOwJeke/JGbtnxJ6i8b5AOkIrycpXdOdsi3eo/EoXjlM6bpNiyuVvhaX3PkzxaFRN8XrxQ+qBUZl/Q56DLeptko5En+DPwq9LP80QacKw71p4K+8yA9/LsMn+zOks6UXJnu6zgfDzt9lpp6EhVWZkXTNcjtK+RXiF5CqpH3BxiPo8LKRT/323vz/Q50nmSWd4u+Xz8sdSF4O+EU6XnS0VZe4TUbPzd52ngRcM6RXyddL7k7zvzL1omRR0b/Bn0RZSBocwvtoEZDtoZDO7MztljB71f9j5/a6UOZaQ5rowY3HGEeB8CEIBAawj43qWNkjuORTsJ7gC443Kn1PXgDtVGyWYmdK71Mncw7/tyxxodIVXZ+nNx5zEmOL5ZWWWGcKHlhwUycVt4tOapAnEHRYk5L5yeu3Y2A76n1CozeDTS7Mo00qnKf4QSeq30SsmG0udWLGslkTy4XC6fjfi50lbpOuleqc3BJvc0yUbeF6+KBJ9nj0rflYqY3EHmNvY7qkg99olTu8m1wT3oFWdegcHdp11y/4HBzY2MCBCAAAQgAAEIQAACxQj4AslbpVcvRvdFgNqNzWJZRm3CxYqTdNDvSFulLphdVaPy4Is+G6V3S0dKviDbmHOgVpN73idvP/+gl59x+eyu6kdwfYaXEcpKd1RZZXA/eOX7Nn28Nz3dxCtno4rOexCAAAQgAAEIQAAC7SHgUWYb21+S/LoxpkZlyRP6ze4/V8TvSNdIj+dJZIKP9a00b5I8iu9ZB0VnHClqOaE2k2uDe/DLz7hCBtdzyCsNZRnRstIdBQeDO4oO70EAAhCAAAQgAAEIJCJwgtLxqJ377rulthpcFX0puPvu6bpeJOtk6YvSzRJhOIGj9dal0gbJ5rYOC6RsR4daTG5dBresFigr3dFNpxsLGMEdh4j3IQABCEAAAhCAAATiCPhe1vMlT0+2sbXB7VpwvTw6+XbJhvdT0sMSYS8Bj9i+TLpEsv1p3OityrQUKje5dRjcMk1omWkvtdKAFxjcAVDYBQEIQAACEIAABCCQkoAX2fLo7UukogsbpSxP2Wm5a3+89LvSTdK0ROj1vLjUJult0o42AKnU5FZtcMs2oGWnP+wEwuAOI8N+CEAAAhCAAAQgAIFEBF6qdN4jebX3STC4AZtHdb0qukeuPTX776VnpEkNrTO4bqjKTG6VBrcK81lFHoM+SRjcQVTYBwEIQAACEIAABCCQiICnpZ4tvVfyoqaNnpaq8pUR3NX3vbp+7u/B0l9Lz0qTFlppcN1IPolLD1UYXJ+JQWVWqIo8hpUfgzuMDPshAAEIQAACEIAABBIQ8Aim70t9l2SD667vJAfX/wXSH0gbpUkKHgw9U/L50Iopyv2NU7rJLdvgVmk66/yUY3D7T1teQwACEIAABCAAAQgkJhCm6L5Z6XrKbp1d38RVi0rOI9nPky6UNkqTEk5SRX2xY3sbK1yqyS3L4AZjW9UnL+RXVwNjcOsiT74QgAAEIAABCEBgIggEg/sG1baVpqbkVpo0o3u4eNrUO1RluRZyS/R/aSY3tcENRrNqylXnt7xdMbjLifA3BCAAAQhAAAIQgEBCAhjcbDAnxegeKBwezffK2q29H7sUk5vK4NZlbH2eh7z9uq6Awa2LPPlCAAIQgAAEIACBiSDghYUukN4o1T2Cu0pl2CXdJ/1Q+tHi1n97deNSfIvSzRNs+o6Qfk3yc3W7FMLY3nGq1PlSq1fUTr668rmfuv2Cg192xuWzu2a95HbuEOjmjpgoQt35h2qs2zD1W1e+b9Nlvelp3/RPgAAEIAABCEAAAhCAQEoCNo1eWOgtUpUG193tn0o2sj9elE3s49K4sFYHHCU9V/KCUEcvyo858n3EVQT3zY+R3i99WKoqX2VVanC7eBT39VKrDa7Kn/YRQja4h5x2xhUyuG74TKEpptKFbUpZbHCvuhCDm+kE4iAIQAACEIAABCAAgSIEXqxI75M8elpFN/hR5fN16bvSI1KR4LLevxjx7sXtGm2Pl14knSEdKnnEtcxgXhulX5c+LXUh+KKHPdzLpZ+XXCHz+5nk88Aj+G5DX7DwRYwk52Kykdwlg7t7sMFNUlrVuozQpLJhcMtoYdKEAAQgAAEIQAACEOgjYFN4oVTmY4JsXjzKea90reRpx2WE3UrUo8LWNdJGyaPTJ0p+1m0ZXX2naR/1Usmm+x+lNge300HSBVLKUVyfA07vW9JD0o+kbZLbbFiw4T1JWi8dJ3nEfoOUywAnMbnzU5Q1gjszxOCqUI0MZZzxMRXF4MbQIy4EIAABCECgkQQeUKk+JrnPFdP1sBnxY0xeK7nz7hGtosH3YbrTeZXk6YllBXdw3Xl+okAG7gz/N8n1jgnm5BG+d0qeEls0uC7umN8hfVkq835M5+Xnkj4rlREOV6K/KHnKb0pDE8oa2t2m8zrpvvBGBVt/xu6VPiR5VNLt/kIp5vOi6AODz20zfL3kOj4stTGYmdvMC02dLsVOXXda5v096RvSD6Q8n2N/zu6RHO5c2MyP9J6q16dJ/jx7evrIEG1yg8GdbZHBjfmFGUkz4k0MbgQ8okIAAhCAAASaS8BGZWui4jktmx9PK4wJju+pgk3ulHu6ZOjoxtTVcQ+RYvu87ri7C/mk9BOprcGjZK+QPCU1xvQPq79HTn1R4x+kbw87qKL9bieb3ZdJvyIdJM1IKYPTO0J6h/ThlAlXmJbNui98vFeKMbj+jNigut1vkIpOSVfUFSGk67Q9out7yc+RfL4NDFEf+LYZ3CaaW7cKBnfguclOCEAAAhCAAAQgAIG0BDz1861SjJkZVCIbHI/W3S59TiprFFpJ5wo2od+UPDPARvRV0k4pdThWCV4g3Zw64ZakZ5t1r/QZ6dGSy+xR4q9JHiX2SPrAUNjktsngNtXcukWabnDffM/cB2efnT1R31y7fZmnbaGOMvfnqXNvf7XxV771gbfesO3668u4Ytq2JqG8EIAABCAAAQjUQ8CjdRdInq6e0uh5ZoBH3m+UbpWaGJ5WoT4pbZV+VXJ3LZVFcFqe9n+2dJfk0f5JCb644Qsmn5c8jb/K4AsYPx2WYSGT2waDm+qsHQYuxf6mG9y33DP3oZnts7+lWfqr+41birrnTaNIexaJE8pVNO7csoh61vE377r0nZu33YDBDWzZQgACEIAABCBQOYGypil7uuhT0tXSlsprlS9DT3n9quSp+u+UUk5fdlfZFxHeLH1KmoRgg+sp4ZdJjzWtwrlNbtMN7jKP0TTeS+VpjcGNv4dlqc5FX1TdpqnyW7dgcC/ddsM/fKto3YkHAQhAAAIQgAAEEhA4WmlsknxPd6pgH+H7uj8hPZAq0ZLT8eifFzOyMf+A5AWMvC82uPvoCwknSxulrVJXg82tmX1X+jvJFw0aF3ItXNBUg+uzKqhxhAcUqG0GN5XpG4Bi7K6ieReNN7ZAIw7oH8XF4I4AxVsQgAAEIAABCFRJ4ABl9krpYCmFoXPZ22hwXe4QturFxyRPs/ZodIrg0dxDpPNTJNbQNILB9QJQH5caaXDNLrPJbZrBtYkJckXaEjC45bdUjMGNiRtqhsENJNhCAAIQgAAEINAAAieqDK+XUo3i2hT6XsgbpbaM4KqoK8JW7fkbyQtmZfZEOnZYcDfSbLwI1Uapa6Hf4G5ueuUyNWhTDG4wtSmMSB0Ng8HNR71N7RxGcTG4+dqYoyEAAQhAAAIQKJWARxa9orANSoqulb2DV07+ktT0e3BVxLHhXh3xacn1MqPY0NXR3GBwfQte4w2uG9FTDUaG1376W69/zktPu7yu5+Cm+DSOrGBFb67fMPWBKy/ctLk3Pe2rRY0LS4tMLZ4TdXMvmn/ReG6QonExuI07nZteIC984Xuj3iN5dcsUP6pKpjXB9yz9WLpVatxCFa2hSEEhAAEIZCPwfB12huTfm9jg3yv3Y78pfTE2sYbEtym9W7pJeosU+2gldyf7R3O36u+uBC8y9fdtqcxIk7tocK+QwXWHrJJQ1GhUUriCmWBwC4LLGS3m3ImJ62IygpuzsSb7cP+grpc8nWkSwzpV2h85P8ydAAEIQAAC5RHwM0RfJnmUMrar41LaN3h68lX+o0PBxtarLr9Q8m+zL0bHBP/Oe0Gr06WtUtuDz58npM9IrXkcpgs9MFRhcP1pW66BhWnxTgxu/sZL8S2cP9diMTyKi8Etxo5YEIAABCAAAQiUSuB5St0LTqUYxfXo5DbpmkTpKZlGBc8s+pzk0erYGVbuyvpi9kkJ0lIStQazsLGdljyS25ow0OSmNrjLjWz4uzWUChYUg5sfnM+NIqFoPOcVExeDW6S1iAMBCEAAAhCAQMkEPGvmxdL+kkcWY4KNjkc3/ciYH8Qk1PC4fhzSbVKKmUZm7tWsz5baHNxN9uj9V9pWiRUm95y/vfPMA0877bIZTVF2rVKobVBSlLdtBjdFnWPTKGo2i8ZzeWPirt0wdcddl76T5+DGNjzxIQABCEAAAhBITSCM4u5KkLCnKdsA3pQgrSYn4cfheNqyV6Fe4ZFyFtxdTD+66dSc8Zp0uEfvPU35s00qVNayrGjAr/366bcrshvYN5YTChBousF96/fm/mpm++xvqWpL92THmL0CiFofZf2RU3fcdtHbMbitb0kqAAEIQAACEOgkAa+nc4wU25+3V3hK+kfpaanrwWb+G1LsaK671u5nHyF5NL1twaP3XkX769LjbSu8y7vC5Hrn51+86j1Ta6fs2mM/GE5uokIbDO6eHbO/qUZplMEtarKLxvNJWTSuDe7XL3z7pU9OX+0HYRMgAAEIQAACEIBAkwh4wamTpRT9eI/mPSJ5AGwSgu8/vVPydOPYe3Odhtvi5VLbgj2iL2pMt63gobwDTa7fxOgGRNm3GNzsrPqPLGo2i8brzzvvawxuXmIcDwEIQAACEIBAxQTCVOXYBafCKO4dFZe/7uweVQE8kOFH3sUEd1W9ANUJMYnUEDeM4m5R3rH3c9dQ/IUsh5pcv43Rzd4uGNzsrPqPrMOoOv8i+WJw+1uO1xCAAAQgAAEINJCA+/Z+Nu6BUqxBmbRR3NCcHsG8S0oxZdlpuD1iR4WVRGXB51CrR3FNaqTJ9QHzRnfN1N/pZYopD06ycwGDW32TFjGpoZRF4mJwAz22EIAABCAAAQg0mIDN7bHSTGQZ7RH8/NgfRabTxui+OPCg5IWoxnqlMRV0t9P35J4w5rimvG0z7oW37pZiL5LUWqdMDff5l6x67xRGd2BDYXAHYsm0s4jZdMJF42Uq1ICDMLgDoLALAhCAAAQgAIEmEjhMhTpNil1V2R7hSclmZxKD7839J2lpDZuCENxtbdOUZZtc1/2bBevbmGiZTK5Li9Fd2WZtM7j+lFVtEFdSW9hTtBxF44Vy5I2PwQ3k2EIAAhCAAAQg0AICh6iMvic3diTXXaZtkp+ROonh56q0TW6K+3I9ZfnIFkH0xY2ftKi8A4ua2eQ6NkZ3L8N1G6bef+WFmzb3pqcbOY3bjwnqX0U5r7nbW9P0r+oqS958Mbjp254UIQABCEAAAhAojYBHDD1VObZvan/gqbrflyY1mOF9ku9LjgnufrbF5HoU11PU74mpcFPi5jK5LjRGt9ezwb3qwk1XYHDzn8Z5jWZ/DjFx+9PJ8hqDm4USx0AAAhCAAAQg0CACvh/3OCl2FDeY3B80qG51FMX3pt4vpZqyfGgdlciRZzC538sRp7GH5ja5rskkG10MbvFzOcakxsR1ifPEx+AWb2NiQgACEIAABCBQG4HnKOdUI7m+L9OP0pnk4Ecwecp2Ib/UB87dUI/mbujb18SXNrmuc+unKhtu4UabNKPrsxOD61Om+pDHoA4qXZ74GNxBBNkHAQhAAAIQgEALCHi68hFSzEiuvcGz0lZp0oNXF/Zors1fbPC0Z7dPk4PPG9+P24lQ2OS69pNgdG2QLC0yxRRlN3rBkMdoFsxiYLQ8+WJwByJkJwQgAAEIQAACzSfgBZI8VTn2flwbOo/iTuqCU6r6UvD9qfdLqaYrb1xKuXkv3O4+d37avKIVK1Fso80b3bd+Z+6Ts7tnf01FiE6vWDXSx+o3R003uG/53txHtMjU+wP//rKnJ5M/xZjyxMTNU1Ib3G9c9I5Lnpy++u488TgWAgUIhKvkjymupwWluEJcoBi1RXFHzM8fjH28RW0VIGMIQAACDSTg6bAHSSm6TruVjn+rNkqxCy8piVYGc7SvOVyKGRlvS+XdF3GfZGtbCjyunElMqUd0u2J0l38ztMHgzmBwB57ny9ty4EHaGQzuEzddicEdBon9KQnY5D0kfVZ6OGXCpAUBCEAAAhNLwL8tNrmeYhsTbOj8CKJLYhLpWFxPWY4J7pJ6qvLxMYlUENfljK1rBcXMlkXUdOX+LNo+ddmtutwUtcngDip/f/vU8Xo5zzxliInrfLLGx+DmaRWOhQAEIAABCECgoQS86FSK6coNrR7FKpmAR3I9w8oLbXUiJDO5ptE2oxuM4SBD1DaD27SzcRDTrGWMies8ssbH4GZtEY6DAAQgAAEIQAACEIgk4Bm0k3aLUiSy4tGTmlwXw0Z31dqpz+hl7I3vxWs1JqZN0CgjhMEdA3DM26PYjok6sl3Gxc3zPgY3Dy2OhQAEIAABCECg4QT8jNwUjw9qeDVbWzx3j21yD2ltDVpW8OQm1/W//sWrLmya0Q3GdpwBa4vBVT1Wj6tLHedi3WXKkj8Gt44zgzwhAAEIQAACEIAABCBQDYFSTK6L3gSja8MTlAVnmwxulvpUfUwWgzmqTFXEx+COagHegwAEIAABCECgpQRSLDrV0qpTbAisJFCayXVWdRjdYGrzGqa1R0xdetWFm67oTU83cpq1HxPkVZRVryQrYq88FeL25OW9PLcq4mNwl1PnbwhAAAIQgAAEOkDAKysfLMWurNwBFFQBAgsESjW5zqIKo2uDFLRQrXz/2+Bec9GmTzTV4J70pbmPPLBt9v27Z3qrm3i3ehUGNV+Lrjwag7uSCXsgAAEIQAACEIAABCDQRQKlm1xDS210g6EN25iGaYPBndMI7vZdvdWP/Fxre+vpZU0yuk0wuOPKgMGN+YQQFwIQgAAEIAABCEAAAu0iUInJNZIYoxvMbNimQtwWg6v6rl4lZ7tDT696tEFGd5y5HNdOsfGd/rg01h05dfs3LnrHJU/cdOXd48rD+xCAAAQgAAEIQAACEIBA+wlUZnKNKovRDUa2f1sG5sYb3FvnPuoRXNV96R7cJhndceZyXJvFxnf649Kwwb3tPW/D4I5rDN6HAAQgAAEIQAACEIBAhwhUanLNLRhdGZQ9NinLVQXbVhjcnbOXiMWSwQ1cmmB0x5nLUNZh29j4TndcGksG99ZrvzOsHOyHAAQgAAEIQAACEIAABLpHoHKTa4Q2ulNrpz6jl5WvZNxmgxtOvzqN7jhzGco4bBsb3+mOSwODO4w++yEAAQhAAAIQgAAEaiDgJXW8+vWOGvKeyCxrMbkmXYfR7YLBDWfpCqNbwWpU48xlKNuwbWz8Yen278fg9tPgNQQgAAEIQAACEIBAQwhodZ3e9oaUpfPFWDEdtsoa2+i+5btzs7O7Zt+jfEstS5cMbmijfqN7xHN6vbUiOFeSk4xNNjZ+qPOodDC4gRJbCEAAAhCAAAQgkJuAB7+ekR6QSu2X5y5ZuyN4KMqzV7mFrsJ2rP0EltH9DRndXplGt4sGN5wjVRjdUcYylGPUNjZ+SHtUOhjcQIktBCAAAQhAAAIQKETAvuDH0kcKxSYSBBpEoLbpyv0MbHR1j+6ntC/5PbpdNriBYb/R3SWC/jtVGGUss+QRGz/kMSodDG6gxBYCEIAABCAAAQgUJuDu1oHSQYVTICIEGkKgESbXLMowuuuPmLr4mos2faI3PZ3cPKdov5P8mKAhqyjnTl/Gdrtm+j/i5+gmMrqjjGWW8sXGD3mMSgeDGyixhQAEIAABCEBgQgnMqN47pYTDHBNKkmp3hkBjTK6JpjS6NrhXXbTpk5NgcIMJDCO6sUbX6YU0i57psfFDvqPSweAGSmwhAAEIQAACEJhgAl619xFpv0gG7natkQ6OTIfoEKidQKNMrmmkMLqTYnD9TbTcBMYa3eXpFTlDU6ThfEelg8Et0jLEgQAEIAABCEAAAkMJuOu1VmK68lBEvNEWAo0zuQaX1+h6ReGgNRMygjvKABY1uqPSzHpCp0jDeY1KB4ObtTU4DgIQgAAEIACBCSHg568+KsWM5rr7tV7aIBEg0GoCjTS5JjrK6AZDG7ahBdZumLr42o5PUfa3zygDGFjkNbpZ0gxpD9umSMNpj0pHBnfLbe952yVP3Hoty7APawj2QwACEIAABCAwaQRS3JfrLpinKzOSO2lnTwfr21iTa9bB6MrM7gmG1ttBofEG90tzH4tdZGpI1QfhmN+Xxeg6zbzpDsowRRpOd1Q6NrhbfvXtGNxBDcA+CEAAApNN4Lmq/qGSO/oECEwige2qNCO5k9jy1HkggUabXJfYRne/NaMfL9QKg7tj9mJVp9BziWOM6CijO8pQDjxbhuysIp1gcB//2tXfHVIMdkMAAhCAwOQS8O+r7yVM9ZM0uSSpeVsJ6Bkbvaek2L69P0M8RqitZwHlXiIQ+0FYSqjMF9e/dLjRnQSDG8t2kNFN1QuoIh0MbuwZQHwIQGBCCfgr2lMPrS4H92UOk7zCLAECk0og3JMb27f358gm97hJBUm9u0Eg9oNQGYVBRrfLBtc9k1QG0o3Ub3R3NuQ5uuHkGVVPDG6gxBYCEIBAbgLurPreOk/j7XLYX5V7joTJ7XIrU7dxBHbrgNjpys7D3TJMrkkQWk2gNSbXlG10p9ZOfdqv122YurTRi0z5HtwCU5RTm1uzWgp6RPh2TWaJfY6u0xtlTJfyy/BiVDoY3AwAOQQCEIAABLgfl3MAAgsEfqaNFdO/98WiA6SNEgECrSUQ8yGopdJP/HDLB/c/euoVW37h9L/rTU9rTLJ54aQIg1tWbYKZ7B/R3VVgRDelCQ9lGlRnDO4gKuyDAAQgAIEBBDxSfZTEolMD4LBrogj8XLV9QCq0BkwfqTBl+Yi+fbyEQKsIxH4IKq/sll8+61llemflGWfMsIjBHWX2MmY79LBBafcb3Q2a4LVWZ8GwVav7Ex6UVv/7eV6PSguDm4ckx0IAAhAYScBft57O2+Vgk3uk9HSXK0ndIJCBwDM65sfSKRmOHXWITe4h0mnSTaMO5D0INJVA60ZymwrS5cprcN3zGGX2Yus6Ku1+o5tlRHdUWnnLOSotDG5emhwPAQh0lMBjqpfvr4u9GB2mHnbV6PreweOlRs7sUrkIEKiSgE1uqpFc3wZwapWFJy8IpCSAyU1EM4/BtckbZfRSFClL+lmNbpa0spZ5VFoY3KwUOQ4CEIBAZgL+2vX9dVYXg6dTehVYL7pDgAAEer3HBcHTlmP7+J7+f7j0UokAgdYRiP0AtK7CZRQ4q8F1T2OUyUtRtrx5jDK6edMaV/5RdcfgjqPH+xCAAAQKEfBIrkdxPeLZxXCsKmUxktvF1qVORQg8pUg/kGIfHdY/ZblIOYgDgVoJYHIj8WcxuKnN4rAijzKRw+J4/yCjWzStYfmMSg+DO4wa+yEAgQkm4JFJrYff07r4USGMxmyISqWZkQ9WsU6S3JcZ9TPTzNJTKgiUQ+BJJXu3FGty/ZnaT/LtAJ4tMclhnSrv+/4JLSKAyY1orHEG198OVfzqpshnyehq4flUz9ENaEcxkMG9bcuvvv2Sx7929XfD8WwhAAEIQGB+ESWPyMT+Tns0xs/K9SIyXQsvUIVOl3Z2rWLUBwIRBPyZf1Dy/bmx3x++SOZbAl4nTXLwvcl/LP2edOIkg2hT3WNP/jbVNWlZT7x57uPDnoObwnRmKWzqfGx055+jq/UpsyxGlbWMw46zwb39Xb94MQZ3GCH2QwACE0zAo7gezY0dyfVPhRev8qhnl4JHVjZK6yV36gkQgMBeAl5pPMWUZX9/eDTXxm5S7831LJi3S76YZg6/I2F2BaHpAZNboIVscHu7Zy9S1H1WvUxtOkcVzXmlDH6EkGWju0Pdqkc0ohtjdMexCAb3sS9fd0/KepAWBCAAgY4QsHH7qeQOZmzw/ap+jqzVlcAobnxL7tOHiU+OFBpEwItPbZHWJiiTR3OfJ71B8sWlSQpey8Cj2P7u9Peou7fqKc+b3d/W9l9Kr1zcpw2hSQQwuTlbY7nBDWbO2ypCyC9lXsufkTtvdDWGUNTojmOBwU3ZeqQFAQh0mICfC59qyqFXSe3KPWUelT5LOkxyx5OQn4AvorgD39UFyfIT6V6Mh1Sln0gpLmb4c/Z86RekSQobVdnXSstviXBX1x7qWOm90h9JZ0o2wISGEMDk5miIfoNbhtkcVZQy8gujt4PyLWp0MbiDaLIPAhCAQCECweTGdpzcQbXB3VioFM2L9BIV6eXS8o5n80pKiSBQHwEvQPVtKXYBKtfA3Tunc9qitOl88OjteyRfEBrXvfV9y++TMLuC0JSAyc3YEja4s5qirLN89bgzPWOSmQ8rI7/lo7eDCpPX6I4rJyO4gyizDwIQgMBQAo/pnUekVCMxHnVo+5Tl41SHVy8y4V5cgSBURsDdHE//9UJubQi+SPZNaYeUor8fpi2/Wel17R5/VWmf4IX6fB+u6+l6Zw39ZtezTbxmAKEmAilO+pqKXl22weDqUnqKjkbmgvvbdJxxzJxY34FZDG44fMnojlmMalw5MbiBKFsIQAACmQl4dWXfl5vit9qLWJ0knSq1Nfh+wLOlUyQvzEUoTsAXCNyBP7p4EhMXM5jc57ao5ttU1q9I/uykCP4e8cWyX0uRWEPT8HPFfR/u6VLR75lgdv+t0nijlOLeaCVDyEMgxQ9nnvxad2wdBrdMc5vH4IbGmje6XoxqgNHNUlYMbiDJFgIQgEAuAj/X0Y9KKS6w2tR4uuGLJN+f28Zgg3u+5BEqQhwB/3x7lKlNhi2uxmlim9sBUltMS+rRXFP0d4kvlv26/+hYsC96qbRJ8gh4TDAnnytvlTyVmVAxAUzuCOBVG9wshnFEcUe+VcTc9ic4yOi6vOMCBnccId6HAAQgMJKApyynWmXZoxIeBT1jZI7NfNP34b5J8tTBLD8/zaxFc0rlDrgXnWrrBY+6SPrc80jf8+oqQIF8U4/mmoFXfX+V1CWja0/kxaMuklJ9zzhNf3/fIhEqJoDJHQK8SoPrb4uyfrFtbmMNbkDUb3R3ahkT/z0qYHBH0eE9CEAAApkI+FEgHs1N8SghGxuPCnvxmOOltoQTVdBfknwvpBfRIsQTCCa3KytuxxPJloK5efTbU3bbEjyau0Xy7Q8pvkdc764Z3TIMrnvJnt79A2mrRKiYACZ3APCqDG5bzG0/Ihvb7UOmLvcfh8Htp8FrCEAAAoUJhMWnUnVOPZp7snSelCrNwpXLENEG913SMZI7jJMenhEAX/hI0X/zaJVHctu+GJmqMDb8TEc8KMVO/bfJ9b3MJ0ltCg+psDdJKRdC6orRLcPg+txwuv6sfsF/EKonkOJLsvpSl5hjFQa3THNrNKlGbpdjDuXuH9HdNWBEF4O7nBx/QwACEChMwPflbpX8FeyRgRRhuxI5R3pLisRKTAODuxKuR7J9oSLFueC0PJJ7qkTIRiB8Ds2tTVO9fYHobmmr5HvzUwXz8MWysyTfd+p7UNsUPPX8F6X3SqmmKLv+9le+sHKL9KREqIEAJrcPetkGN5jEviyTvkw5NXl5wVz2/jDM6K49cuobt7/rFy9+7MvX3dN/PK8hAAEIQKAwgYcVM8UoVCiAv9JtcM6XLgg7G7bF4A5uEBtcjw6lGIX3qORzJC9G5vtzuxy0dGayz5DN0Aapbfe2+3vkGsl9/xQXSZTMfPD3ic/HV0oflI6X2hCeq0L+uuSLfa6DlSKYrT9bW6V/lAg1EcDkLoI/8Za5v/FzcHVmxk5lWdGUKT85KxJf3FHW6K2TH/apX25018vg3vErb8LgDmsk9kMAAhAoRuABRdsqpRyBcSfM6f2CdIHUpPAKFeb9kh9vwxTllS3jKcupRnPN16bEI3FdDuZlo5ui3+vPji8K+OKAjVKbwv0q7Fel9SUU2t1Fn0v/THpTCemnStIm9BTpX0heaGqnlDL4HPM6Cv+QMlHSyk8gxYc9f64Ni3HU//zaH6lI70htcP1pt8oMZY/ejiv/vNGdneo98tRU75Y3n/evHvv6jf9UZn1JGwIQgMAEEnAn7D7J25S/2+6s+8KuF3V6h5TSRCu53MEd77dJF0oeYfRoM2ElAZvcJ6RUo7meYupROBuUrgYvvmTjkerz44sDJ0i+SNSm4Cm009L9Uhmfd3+nrJPeKv2hZDPZpODF6/z94hHnw6TU3zE+v7zA1/US05QFoc6Q6sNeZx2i837498/5L0rkczJ00Se7TWFQdMFGJFCmuXW2rkOWsGr1VG/mkUd6j3z6b3urz/6jP+89/0UvzBKPYyAAAQhAIBeBe3S076lbmyvW+IPD1/0bdehvS0ePj1LKES9YzN9TBz3S4s4yYTABP5LkISnVzLMwmvtOpVnWIlQuq81PXcHn08OS+3k+v2JD+Nz44oAvEJUR/Fm3KUsdzKGMacv95TSfYySbyd+RTpDqDL6Q43tv/43k0VufA6EN9TJJcJo+v74n3ZkkRRKJIoDJXcR37/mrLp1aM3WFzvhCRteflNSflkEtW4W5zVoPG9zdDz/Se+aWW3szTz7Zm9351Kue+7b/uLl3zMtPHVR29kEAAhCAQGECHhUIM2VSdNKXF2SndmyUPIXvlyVPx6wiHKFMflP6XelYaZdEGE3AI0U2uSlGckNO5n6idJGUckTXxtYXLi6W6jS5yr7nRdwelFJdHHB3yW1wrvQuaX8pVfDFhg9Iv5EqwWXp+Lvkc1KZC0WZj7+rfAHLn+/fl86QqgzB3P47ZfpGyRcOyrqA5rreK31KIjSAQKoPegOqEl+Eey9Y9X4tPtXLem9uVjMYX7KFFMq879Y55KnPcoPb22/ht3b22SdldP9k88+u+fcX935yl0ceCBCAAAQgkIaAO1DunHoKoE1p6uDOn6cwvl7yCNVt0pelMqbdbVS6myTXJbbj6R+gxyWPcNocuGNbVkdWSdcedqkE90teAMkd6zw/3zp8aPCI7jGSR9/c9jdLNtRFwnpFepV0vnS05FkIdbeJz48fScdJrmuKYPbuS58tOd0bpG9JRYNZvUl6mWSG35TKCK7/1yVfZHqN5BXXywpm5EE18/kNyTMGXK9vSz+UUp8X/j55qXSWZIPt7weXIXU+SnIp+HPoc+uypT28qJ0AJndZE2Qxuql+TZZlPfTPJplbF3KYwQ0VmN3+5FkY3UCDLQQgAIFkBB5USjYfJ0ruNJbVaZtR2jaKF0jnSfdJd0nfkYqaHptnG6gXSadLNqNh5lRMPdy5NAt3mt1hft/i3zFpKonGB5t6t4uNg01vqmBuNlfnS77QYcP2Dcmmelz3x+bihZIN30mS03F6oZ31stbgkdwfSW9MXIrAxQb1Emmb9FXJnxnnOSr4/D1UOlXyKKf5hfYM6WpXKeFnSvVGaYPk9gr56mVpweeDR7zPlc6Tdkj/JPmze6/k+6bzni+eIXCy9PzFrT8T9jeBX9hqVynBJvox6Rrp2VJyINFCBDC5A7ANMrplf0IGFKO0593255W3XuMMbkh7Rkb3QI3oPsOIbkDCFgIQgEAKAh79cIfu1VKZoy8uq38i3E94waLepe1PJXdIvXWH1HInrz84njueh0keKTpWOlJy59adXIe8HdmFWCv/t3m2cfmaZLNgwzsJwUbq+1JZ5iSYERvWc6RnJHfkveDVT6RgImxs3c7HSP0XLvTnUlv7dVOCud0ruay7SyqUz/V3Sr8i+XPysGRuNrw+P832QMltd4j0HCl8LqowmspuKfjz6+m1l0huw7KYKOkVIXxPeNTacvA+X0jzRZydki/k9HuVEMft5++Tw6XnSoGfXs4HH1dFCAb3E8psaxUZkkd2Av0nTvZYE3Ckje5GTV2e02OFVN1KOZU9cuvmK/Lpz2Jw+9Odw+hOwCeFKkIAAhUTcEfZI0Qe8XFHeUaqKjgvdyhfUTDD5R3RgsksRXMH0zy+IdlE2FxMSrAZulfaIQXjVFbd3W42FMctyiPxg0KqCxeD0k61z0b9u9LxUtmGLozS+uLLqJD6czEqr0Hv2YR/VrpUqvo7ZXl5zMzG33J4ycJm5P918cPgjmyW+t/0FyNhCIGtMrqrtBiV3q7ki7vsRaVCNfuNaNg3bpvX4Ib0gtFlMapAhC0EIACBaAI2uV+W3Mlyp3ASg+vtnzNz+OokAlCd75O2SB41J2Qj4IsCNrnbJfrAe5n9QC//RvKIvb9XCKMJYHBH82nEu3zAxzRDFUa3SnNbpcENaDG6gQRbCEAAAskIeNEYm91JNDg2uO5kegT3C9KkhqdVcd8z61Fd+nPZz4IHdOgtkkenCXsJYHT3shj1CoM7ik6D3uNLMUNjlGF0g7GtampyEXNrNONGcJ1ulrQxuhlONA6BAAQgkJ3AkzrUHfUHJd+XOknBCxrdLn1GqmSmVYPh3qOy3Sxh2LI3kkdz75S2SZXejpa9iLUdaaP7P6Wtku+3JuxLwBfYfiz9P2mrRGgwAUxuxsZJZXSDuc2YbfRhWQzosExscPf4Obg339rbo+fghscEhePzpo3RDeTYQgACEEhCwB3SGyR32j260PXgDqb7Ld+UrpeqvB9Z2TUyeBTXI9rfkyZxVL9oo9yniNdJPp98XhH2EnhULy+XPK2bc2ovF58n90ofWtzufYdXjSSAyc3RLDFGtw5zm9eE9qOYN7gP2eDe0pt98oneqqm9/SenWzRtjG4/ZV5DAAIQiCbgezL/QfJKpHu/qKOTbVwC7mC6fp6m/XHpEYmwQOAhbW6RvAhXl8+Bhdqm+/87Ssr3dDMKvpKpF3K7TLpRmvQLAf7u8YwRnyt/KfGYIEFoQ8Dk5mylvEa3bebWOPoN7swTCyO4q2xrF/7lJLbycIzuSibsgQAEIBBB4GuK+zmpq0bXnUxfW71V8iqw7nAS9iXwbf35Rckm17wI4wn4osC0ZLPLiKUgLAs2c1dLn5AmdUEq+yTf+/5J6e8lQosIYHILNNY4oxuMrbdVhhTZLRnc6Zt7M2GK8lLCerH0Oq5mGN04fsSGAAQgsIxAV42uTZunY9vE2+CW/dgXZdHK4Knb09KVku/RxugKQobgqbl/J90rcQ/qSmA+rzxb5MOS7/+elIsB4cKap2z/V8n3cBNaRgCTW7DB5o3u+qnNij5/RbkuY+vi23em8J5LBvfmRYM7tXB6zKe/mEEY0XW+sWH22SfOOuBtf7K5d/RpL45Ni/gQgAAEINCz0fWCKJqC04kFdWw6HpT+r/QliTCaQDC6viCA0R3Nqv/dh/WHPzdbJYyuIAwIP9G+v5a82JvPsy77B9fNo7eXS/7uYXqyILQxdPkkLb09tr521Qfm1qMceG4AABE5SURBVE5tlsGtZepUKnNrUAsGd1vvmZtu7s0+/mRv1X6+eC7z3D8cncjoOs2Q7pyN7i/96WUY3Xnc/AcBCEAglsBdSuCj0o+kto66uG/i31UvLvUX0laJkI2ADcjNEkY3G69wlI2uTc0/SW393IS6lLX1Ime+ZeA/SV78zaFLMwb8veNbPm6UXEd/lxJaTACTG9l495+/6gO9dXtHdCOTyxQ9pbl1hvsYXC0y5VWU+73tPn9EGt1gbvsrOvfsk6/E6PYT4TUEIACBKAIedfEIxA2Sv7Xb8lvvDrPL+n3pf0nXSO5YE/IRsNH1/bl/Jfm+Ux6TIwgZgqcu/43kiwQ+D7tk4FSdZOEppeQLAh+StkptH/12O/s2CC9q99+laxf/1obQZgJt+eFrNOOqjG5qc2uoweA++0WN4HqRKa2irHHWBd7aLH3D97vexbfzTl0eZHBDw2J0Awm2EIAABJIQ2K5UfH/m/5BsGv11vvSVrtdNC2tUIJuMj0nuPD8oEeII3K3obn/fU4lpy8bSFwV87/fHJZs5LhAIwoDgnuAPpb+U/Fzd+6S2mV1/JjwV+fPSf5Y+JT0mETpCAJObqCHLNLr+Jln0lYlKu5DMXoM73WdwQ2aLOWqz1CsqaHT7pyePqgBGdxQd3oMABCBQiIDNokf0LpP82B2byaaE8POyTQW6QvICLzZmhHQEfH/2JySP7HuEv21GREWuPLgD9C3pz6VpyVPn6S8LwoBgVja7/1syLy/U5H3hs62XjQou16x0n/TXks2tZ7w8LRE6RqCpJ2FrMR9/y9zHejtnL1YFoq/++VuirLDX4GqRqScWpiiH76S5cFbMbxf/0GapPKvCASrd4ss5v+jbHco9avQ2HLN8u+qAQ7c8e/UfX9J76Nv+siRAoEkEjlNhTpH8+V76SOQsoOP6arHPb48aEMon4A7qEdJBkjs4RYPTcWfII44x6RTNP0W8E5XIJulkyYanjnr412JGuke6SdoqpQgHKJEjJS8qUfTz6bg2hm7jroX9VaEzpNdIx0ieollF8HnmtvaFljZ+5z1H5X6DdI5U5WfGvxW3SVdIbQrm9WrpNGmjVNV5pqwGBn/f+LaH+yWfh3dIHqXvSvA5ear0fMnfq0WDOXlk2zM/thdNpEnxXCFCYgKxRrfoL3PWaswb3J9s63mK8pLBXToTFl6kMLpFDG6oA0Y3kGALAQhAoBQChyjVV0gvltw5Wi+VaXj94+KOphf4cSfqdsmPBiJUT8AXa9wpfpN0rOS/U3c93N5O8zHpy9I/Sh4RbXPwRbJg3o7X6zLMW/ic2IzdKt0nlfm5VPKlBdflcMlm9yTpBOlAqez6BIYPKK8HpR9IW6VOGDfVg5CRgE8EQgkEihjd1L8wg6q1ZHBvnJ6fojznVZTDWRC2izuKGt2le3oHFSDHPoxuDlgcCgEIQKA4AY/wnSi5E3q0ZONzsBQ7KuDOrEdEvy/9ULpXekYiNIeAR79fIvlix0bJFz+KtrvNso3EVulH0nclX9ToYvDMEJu3F0jHS+ZY1Ly5++fZA/6c2Nx6u1PqWlCHc35GzfO1PW5R5rZBKnLOmZtHZB+XzGur5JHI+6WunneqGiErgSVbkzUCx2UnkMXo+hNaVbDB3a0R3O033LRwD+5qf9/MLx+VxugqNRvcYVOXi9QTo1uEGnEgAAEIRBPwiMvzJJseb91fWCe5c9/foQ/GxiN2Hpn1aK3ugeltk7yvaMdfUQk1EHC7+4KHL3I8V3L7ezSu34S4zX2xwm3s/bslt7kvaDwi9R+rPzsfPK3YjI5a1BptfbHI+/u7ecHM+nPhY8zQhuxnkk3uJAdfaPPFglGj/f4O8kUUj84SIDCWACZ3LKK4A4YZ3f5vvbgcssWeN7gPPiyDqxHcJ/Vduvgc3IVB23ijuzQ1efGMSmV0vdaVje72a7hHN1tLcxQEIAABCEAAAhCAAAQmmwAmt4L27ze6VZvb+eppBHePDO6OxRHcuf10cbG/5edfFze68wY3x2JUWZD3L+Ts4zG6WahxDAQgAAEIQAACEIAABCDgKSeEkgmExwvJ4I6ahpG8FPOGOhjcL2iK8uMLI7grnm87f+D82OveiTVLbnzhxarw9+KxLuzcrP4IbjRs599YrEq/kV7clWXTn1Q43o8X2v9tf3pZ7+jTfN8QAQIQgAAEIAABCEAAAhCAwEACBW3IwLTYOYbACbfMfXR25+wlOsz3aZQWgh+dX2TKI7jXf1FTlH+6bIqy/ayav/8MmH+dbUR3YXGpxcjazOep0dw5j+gu7i5SwUEGtz+d+RHdq//s0t7Dd3ynfz+vIQABCEAAAhCAAAQgAAEImECEHQFgEQJlGt1gbufLpRHc2XmDe1PfY4L6mnvxZV6ju7Cw1GLNncaisZ2b6ku7AJhx5rY/yVUHHnr79qv+7BKMbj8VXkMAAhCAAAQgAAEIQAACJhDnTGBYiEBqo7uPuXWJgsH9vEZwn9AUZa2ivHRMlntn58+KZSO6SjaM3vrRQh6xnZvSbPcEE97zGNwAHKMbSLCFAAQgAAEIQAACEIAABPoJYHL7aVT4OoXRXTKu/eVeMrg3LhhcLzLlYGO68Gp+9DW8DJc5Ro3oLpnb/WxsF7QUP/JFEYMbssToBhJsIQABCEAAAhCAAAQgAIFAAJMbSNSwLWp0l8zq8jKv0RTlB3QP7ueDwdVzcOdbeLGZcxrdMGI7u3px1HZ5fhF/x5jb/mwxuv00eA0BCEAAAhCAAAQgAAEIYHJrPgfyGN2h5tZ1WDS4O21wtYrynKYoL4WcRndOI7azmoo8q20Y6V1KK8GLVAY3FAWjG0iwhQAEIAABCEAAAhCAAAQwuQ04B8YZ3ZHm1uUPBvc6j+A+sbiKskZf+1t3jNGdN7aa6jyzX4KbbEcwTW1wndU8Hy1GtZPFqEaQ5y0IQAACEIAABCAAAQhMBoF+GzQZNW5oLQcZ3bHm1nWZN7gP9XZep0WmHl80uEutOsLoKqqnIc9qxHd2P436ytvOleFAF3mXkfQKPhjdRdpsIAABCEAAAhCAAAQgMLkEluzQ5CJoTs1tdGfyPEc3jOBe+wUZXD0Hd8UUZdetz+jKFc55YSrFm/Gxi4/9KdPcugSVGFxn5IDRXeDA/xCAAAQgAAEIQAACEJhQApjchjX8cTK6c1mMrg3u/Q/3dl5zQ2/uyYUR3MErJKuCur92Zs1+8/K05BDaaG5d9hUjuKFCYYvRDSTYQgACEIAABCAAAQhAYOII7HU8E1f15lZ4rNGdN7iaonytDK4Wmep5uvFiS84bXVdNZnbe2K7VM3KX3Wdbtrl19pWO3jrD5QGju5wIf0MAAhCAAAQgAAEIQGAiCGByG9rMQ43uosHddY2nKMvgrl58Dq7qMef7ajUNec/6NbrXduUCUm01t26isaO3g9oRozuICvsgAAEIQAACEIAABCDQaQKY3AY373G3zn1kbsfs+1XEBScbDO7VX+jNPbEwgjun+2pnPRV53er5kdtB1anC3DrfMkZv59MdVKms+2x0r/+TS3v333l31igcBwEIQAACEIAABCAAAQi0lwAmt+Ftt2R010ytnr3/od4uGVwvMjWn0do9+69ZMLZDWnGizW1/ux5w2B07v/AfLsHo9kPhNQQgAAEIQAACEIAABLpJYIg96mZl21qr474695GZ7z/0/h1f+OLqPT97ujdzwDo9A3d407Xd3LqdCk1PHtXAGN1RdHgPAhCAAAQgAAEIQAACnSGgFYsITSfw9P/9k8/NHPSKE/bM7H757FrdbDvE4FZlbs2rrKnJ82knbpB5Lru3H7361F84d+ahe77U+/m2RxNnQXIQgAAEIAABCEAAAhCAQEMIYHIb0hDjirH7zs9+bs2Z7zqhNzv7ch27z6pSmNvh9PZhs3vH0atfgtEdTot3IAABCEAAAhCAAAQg0H4CmNwWteFyo7uPgSu5HmWO3LroyacnO81BhcbolnymkDwEIAABCEAAAhCAAATqJYDJrZd/7tyD0Z2bmVkxops7sYwRBnnFjFHHHlaGuXWmAw1uKA1GN5BgCwEIQAACEIAABCAAgc4RwOS2sEltdNee+W5NXS7X6JZpbo29DIM70tz2tzVGt58GryEAAQhAAAIQgAAEINAZApjcljZlmUa3jebWzZjZ4IY2x+gGEmwhAAEIQAACEIAABCDQGQKY3BY3ZWqjW7a5NeoyRm/n0y1aeIxuiz8BFB0CEIAABCAAAQhAAAIrCWByVzJp1Z5URreoR8wKq3Hmtr/gGN1+GryGAAQgAAEIQAACEIBAqwlgclvdfAuFt9Fdfca7j19V4B7dss2tS9hogxvaPxjdx7735d7T2x4Ju9lCAAIQgAAEIAABCEAAAu0igMltV3sNLe2eOz97ZR6j22Zzawi5778dSm7hDfOYs9E9Vc/RfRyjOwYXb0MAAhCAAAQgAAEIQKCxBDC5jW2a/AXLYnSrMLcueStGbxcR78MEo5v/xCMGBCAAAQhAAAIQgAAEGkQAk9ugxkhRlGFGdx8jlyKjIWmUZW6dXerR24U0B1QEozsACrsgAAEIQAACEIAABCDQDgKY3Ha0U65S9htdmdupXJELHlymuXWRKjO4of4Y3UCCLQQgAAEIQAACEIAABFpFAJPbqubKXthgdHsFFqPKnsvCkWUa3MrNbX/lMbr9NHgNAQhAAAIQgAAEIACBVhDA5LaimYoVct7onvnu48syumWaW9e4VoMbkGN0Awm2EIAABCAAAQhAAAIQaAUBTG4rmql4Icswum00tyZY+L5kjG7xE5CYEIAABCAAAQhAAAIQqJgAJrdi4HVkl8rolm1uzaaM0duFdCPJY3QjARIdAhCAAAQgAAEIQAAC1RDA5FbDufZcYo1u2Qa3sea2v+VkdPfTc3RneY5uPxVeQwACEIAABCAAAQhAoFEEMLmNao5yC1PE6JZtbl3jVhhcl9NP/929/egpjG65JyqpQwACEIAABCAAAQhAIIIAJjcCXhujZjW6mNt9W3fe4IZdGtHF6AYYbCEAAQhAAAIQgAAEINAsApjcZrVHJaWZN7pnvPtYrbp8ujLc5zm6bTa3hld4cakR5PcxuOG4YHQf++FXek8/9EjYzRYCEIAABCAAAQhAAAIQqJcAJrde/rXlvueuz161us/oVmFuXdmypiYvpJ0e50CDG7Kx0X3Rm8+dxegGImwhAAEIQAACEIAABCBQOwFMbu1NUF8BgtGdGzCim7pUnTK3/XB27zgKo9sPhNcQgAAEIAABCEAAAhColwAmt17+tecejO6gqcupCtdZgxsAYXQDCbYQgAAEIAABCEAAAhConQAmt/YmqL8AM8umLqcqUdvMres9cnryKDAY3VF0eA8CEIAABCAAAQhAAAKVEcDkVoa62RmlNLplmltTLGNxqfl0/YigmIDRjaFHXAhAAAIQgAAEIAABCCQhgMlNgrEbicQa3Yk1t/3Nb6N7KotR9SPhNQQgAAEIQAACEIAABKokgMmtknYL8ipqdDG4C407P8oso7tKRneOVZdbcMZTRAhAAAIQgAAEIACBrhHA5HatRRPUJ4/Rbau5NabC998OYdw/jXoVRncIJXZDAAIQgAAEIAABCECgXAKY3HL5tjb1cUa3bHNrcP2mMSXI1OZ2WFkxuilbjbQgAAEIQAACEIAABCCQjcCqbIdx1KQSWH/xZR/s7dl1Ym+qtzswmJ2dDS9bty2l5CMTndt/7sBDvzJzzZ/d0Nt21zOtA0aBIQABCEAAAhCAAAQgAAEIQAACEIAABCAAAQhAAAIQgAAEIAABCEAAAhCAAAQgAAEIQAACEIAABCAAAQhAAAIQgAAEIAABCEAAAhCAAAQgAAEIQAACEIAABCAAAQhAoFME/j+Kh6AuMnmp8AAAAABJRU5ErkJggg==;" vertex="1" parent="1">
          <mxGeometry x="96.23000000000002" y="173.91" width="393" height="112.17" as="geometry" />
        </mxCell>
        <mxCell id="7uIyVyYUi98pweWcv_3k-10" value="Client Layer" style="text;html=1;strokeColor=none;fillColor=none;align=center;verticalAlign=middle;whiteSpace=wrap;rounded=0;fontSize=18;" vertex="1" parent="1">
          <mxGeometry x="395" y="140" width="60" height="50" as="geometry" />
        </mxCell>
        <mxCell id="7uIyVyYUi98pweWcv_3k-11" value="Server Layer" style="text;html=1;strokeColor=none;fillColor=none;align=center;verticalAlign=middle;whiteSpace=wrap;rounded=0;fontSize=18;" vertex="1" parent="1">
          <mxGeometry x="395" y="320" width="60" height="50" as="geometry" />
        </mxCell>
      </root>
    </mxGraphModel>
  </diagram>
</mxfile>
